solid mouse
facet normal -1.0 -1.8488735651687698e-16 6.297910494106235e-16
  outer loop
    vertex 1.1472590659256447 39.51494357374226 22.999999999999993
    vertex 1.1472590659256163 38.955114025223025 17.703720590100872
    vertex 1.1472590659256428 38.955114025223025 22.999999999999993
  endloop
endfacet
facet normal -1.0 -1.8488735651687698e-16 6.297910494106235e-16
  outer loop
    vertex 1.1472590659256463 34.15612476469511 23.023667851369122
    vertex 1.1472590659256379 31.214943573742254 8.499999999999991
    vertex 1.147259065925648 31.214943573742246 23.023667851369126
  endloop
endfacet
facet normal -1.0 -1.8488735651687698e-16 6.297910494106235e-16
  outer loop
    vertex 1.1472590659256379 31.214943573742254 8.499999999999991
    vertex 1.1472590659256463 34.15612476469511 23.023667851369122
    vertex 1.1472590659256086 34.15612476469512 17.703720590100872
  endloop
endfacet
facet normal -1.0 -1.8488735651687698e-16 6.297910494106235e-16
  outer loop
    vertex 1.1472590659256379 31.214943573742254 8.499999999999991
    vertex 1.1472590659256086 34.15612476469512 17.703720590100872
    vertex 1.1472590659256379 39.51494357374226 8.499999999999991
  endloop
endfacet
facet normal -1.0 -1.8488735651687698e-16 6.297910494106235e-16
  outer loop
    vertex 1.1472590659256379 39.51494357374226 8.499999999999991
    vertex 1.1472590659256086 34.15612476469512 17.703720590100872
    vertex 1.1472590659256163 38.955114025223025 17.703720590100872
  endloop
endfacet
facet normal -1.0 -1.8488735651687698e-16 6.297910494106235e-16
  outer loop
    vertex 1.1472590659256379 39.51494357374226 8.499999999999991
    vertex 1.1472590659256163 38.955114025223025 17.703720590100872
    vertex 1.1472590659256447 39.51494357374226 22.999999999999993
  endloop
endfacet
facet normal -0.0 -1.0 -0.0
  outer loop
    vertex 1.1472590659256447 39.51494357374226 22.999999999999993
    vertex -0.7963220406995671 39.51494357374226 8.499999999999991
    vertex 1.1472590659256379 39.51494357374226 8.499999999999991
  endloop
endfacet
facet normal -0.0 -1.0 -0.0
  outer loop
    vertex -0.7963220406995671 39.51494357374226 8.499999999999991
    vertex 1.1472590659256447 39.51494357374226 22.999999999999993
    vertex -0.7963220406995604 39.51494357374226 22.999999999999993
  endloop
endfacet
facet normal 0.0 0.0 1.0
  outer loop
    vertex 1.1472590659256379 31.214943573742254 8.499999999999991
    vertex -0.7963220406995671 39.51494357374226 8.499999999999991
    vertex -0.7963220406995671 31.214943573742254 8.499999999999991
  endloop
endfacet
facet normal 0.0 0.0 1.0
  outer loop
    vertex -0.7963220406995671 39.51494357374226 8.499999999999991
    vertex 1.1472590659256379 31.214943573742254 8.499999999999991
    vertex 1.1472590659256379 39.51494357374226 8.499999999999991
  endloop
endfacet
facet normal 0.0 1.0 0.0
  outer loop
    vertex -0.7963220406995569 31.214943573742246 23.023667851369126
    vertex 1.1472590659256379 31.214943573742254 8.499999999999991
    vertex -0.7963220406995671 31.214943573742254 8.499999999999991
  endloop
endfacet
facet normal 0.0 1.0 0.0
  outer loop
    vertex 1.1472590659256379 31.214943573742254 8.499999999999991
    vertex -0.7963220406995569 31.214943573742246 23.023667851369126
    vertex 1.147259065925648 31.214943573742246 23.023667851369126
  endloop
endfacet
facet normal -3.0899831444413505e-08 3.5018765684267924e-09 -0.9999999999999996
  outer loop
    vertex -0.6933935604506507 40.71494357374226 7.499999999999992
    vertex -0.796322040699567 30.014943573742254 7.499999999999992
    vertex -0.7963220406995671 40.71494357374226 7.499999999999992
  endloop
endfacet
facet normal -3.0899831444413505e-08 3.5018765684267924e-09 -0.9999999999999996
  outer loop
    vertex -0.796322040699567 30.014943573742254 7.499999999999992
    vertex -0.6933935604506507 40.71494357374226 7.499999999999992
    vertex -0.7027409340743639 30.014943573742254 7.499999999999992
  endloop
endfacet
facet normal -3.0899831444413505e-08 3.5018765684267924e-09 -0.9999999999999996
  outer loop
    vertex -0.7027409340743639 30.014943573742254 7.499999999999992
    vertex -0.6933935604506507 40.71494357374226 7.499999999999992
    vertex -0.6100358357618797 30.000260528630797 7.499999999999992
  endloop
endfacet
facet normal -3.0899831444413505e-08 3.5018765684267924e-09 -0.9999999999999996
  outer loop
    vertex -0.6100358357618797 30.000260528630797 7.499999999999992
    vertex -0.6933935604506507 40.71494357374226 7.499999999999992
    vertex -0.6006884621381666 40.729626618853715 7.499999999999992
  endloop
endfacet
facet normal -3.0899831444413505e-08 3.5018765684267924e-09 -0.9999999999999996
  outer loop
    vertex -0.6100358357618797 30.000260528630797 7.499999999999992
    vertex -0.6006884621381666 40.729626618853715 7.499999999999992
    vertex 1.4045539676131529 30.000260528630797 7.499999999999992
  endloop
endfacet
facet normal -3.0899831444413505e-08 3.5018765684267924e-09 -0.9999999999999996
  outer loop
    vertex 1.4045539676131529 30.000260528630797 7.499999999999992
    vertex -0.6006884621381666 40.729626618853715 7.499999999999992
    vertex 1.4139013412368664 40.729626618853715 7.499999999999992
  endloop
endfacet
facet normal -3.0899831444413505e-08 3.5018765684267924e-09 -0.9999999999999996
  outer loop
    vertex 1.4045539676131529 30.000260528630797 7.499999999999992
    vertex 1.4139013412368664 40.729626618853715 7.499999999999992
    vertex 1.4972590659256368 30.014943573742254 7.499999999999992
  endloop
endfacet
facet normal -3.0899831444413505e-08 3.5018765684267924e-09 -0.9999999999999996
  outer loop
    vertex 1.4972590659256368 30.014943573742254 7.499999999999992
    vertex 1.4139013412368664 40.729626618853715 7.499999999999992
    vertex 1.5066064395493504 40.71494357374226 7.499999999999992
  endloop
endfacet
facet normal -3.0899831444413505e-08 3.5018765684267924e-09 -0.9999999999999996
  outer loop
    vertex 1.4972590659256368 30.014943573742254 7.499999999999992
    vertex 1.5066064395493504 40.71494357374226 7.499999999999992
    vertex 1.8472590659256378 30.014943573742254 7.499999999999992
  endloop
endfacet
facet normal -3.0899831444413505e-08 3.5018765684267924e-09 -0.9999999999999996
  outer loop
    vertex 1.8472590659256378 30.014943573742254 7.499999999999992
    vertex 1.5066064395493504 40.71494357374226 7.499999999999992
    vertex 1.8472590659256378 40.71494357374226 7.499999999999992
  endloop
endfacet
facet normal -3.0899831444413505e-08 3.5018765684267924e-09 -0.9999999999999996
  outer loop
    vertex 1.8472590659256378 30.014943573742254 7.499999999999992
    vertex 1.8472590659256378 40.71494357374226 7.499999999999992
    vertex 1.9399641642381218 40.7002605286308 7.499999999999992
  endloop
endfacet
facet normal -3.0899831444413505e-08 3.5018765684267924e-09 -0.9999999999999996
  outer loop
    vertex 1.8472590659256378 30.014943573742254 7.499999999999992
    vertex 1.9399641642381218 40.7002605286308 7.499999999999992
    vertex 1.9399641642381218 30.029626618853705 7.499999999999992
  endloop
endfacet
facet normal -3.0899831444413505e-08 3.5018765684267924e-09 -0.9999999999999996
  outer loop
    vertex 1.9399641642381218 30.029626618853705 7.499999999999992
    vertex 1.9399641642381218 40.7002605286308 7.499999999999992
    vertex 2.0235946416133794 40.65764867205475 7.499999999999992
  endloop
endfacet
facet normal -3.0899831444413505e-08 3.5018765684267924e-09 -0.9999999999999996
  outer loop
    vertex 1.9399641642381218 30.029626618853705 7.499999999999992
    vertex 2.0235946416133794 40.65764867205475 7.499999999999992
    vertex 2.0235946416133794 30.07223847542977 7.499999999999992
  endloop
endfacet
facet normal -3.0899831444413505e-08 3.5018765684267924e-09 -0.9999999999999996
  outer loop
    vertex 2.0235946416133794 30.07223847542977 7.499999999999992
    vertex 2.0235946416133794 40.65764867205475 7.499999999999992
    vertex 2.0899641642381193 40.59127914943 7.499999999999992
  endloop
endfacet
facet normal -3.0899831444413505e-08 3.5018765684267924e-09 -0.9999999999999996
  outer loop
    vertex 2.0235946416133794 30.07223847542977 7.499999999999992
    vertex 2.0899641642381193 40.59127914943 7.499999999999992
    vertex 2.0899641642381193 30.13860799805451 7.499999999999992
  endloop
endfacet
facet normal -3.0899831444413505e-08 3.5018765684267924e-09 -0.9999999999999996
  outer loop
    vertex 2.0899641642381193 30.13860799805451 7.499999999999992
    vertex 2.0899641642381193 40.59127914943 7.499999999999992
    vertex 2.1325760208141817 40.50764867205475 7.499999999999992
  endloop
endfacet
facet normal -3.0899831444413505e-08 3.5018765684267924e-09 -0.9999999999999996
  outer loop
    vertex 2.0899641642381193 30.13860799805451 7.499999999999992
    vertex 2.1325760208141817 40.50764867205475 7.499999999999992
    vertex 2.1325760208141817 30.222238475429773 7.499999999999992
  endloop
endfacet
facet normal -3.0899831444413505e-08 3.5018765684267924e-09 -0.9999999999999996
  outer loop
    vertex 2.1325760208141817 30.222238475429773 7.499999999999992
    vertex 2.1325760208141817 40.50764867205475 7.499999999999992
    vertex 2.147259065925636 40.414943573742256 7.499999999999992
  endloop
endfacet
facet normal -3.0899831444413505e-08 3.5018765684267924e-09 -0.9999999999999996
  outer loop
    vertex 2.1325760208141817 30.222238475429773 7.499999999999992
    vertex 2.147259065925636 40.414943573742256 7.499999999999992
    vertex 2.147017534197128 30.714944215897834 7.499998846841572
  endloop
endfacet
facet normal -3.0899831444413505e-08 3.5018765684267924e-09 -0.9999999999999996
  outer loop
    vertex 2.147017534197128 30.714944215897834 7.499998846841572
    vertex 2.147259065925636 40.414943573742256 7.499999999999992
    vertex 2.147167460713621 31.214943573742254 7.499999999999992
  endloop
endfacet
facet normal -3.0899831444413505e-08 3.5018765684267924e-09 -0.9999999999999996
  outer loop
    vertex 2.147259065925636 30.314943573742255 7.499999999999992
    vertex 2.1325760208141817 30.222238475429773 7.499999999999992
    vertex 2.147017534197128 30.714944215897834 7.499998846841572
  endloop
endfacet
facet normal 0.7071067811865476 0.7071067811865476 -2.750462098904989e-16
  outer loop
    vertex 1.9411516920718725 39.91945207092974 8.499999999999991
    vertex 2.0517675631131156 39.808836199888496 22.32366785136907
    vertex 2.0517675631131103 39.808836199888496 8.499999999999991
  endloop
endfacet
facet normal 0.7071067811865476 0.7071067811865476 -2.750462098904989e-16
  outer loop
    vertex 2.0517675631131156 39.808836199888496 22.32366785136907
    vertex 1.9411516920718725 39.91945207092974 8.499999999999991
    vertex 1.941151692071878 39.91945207092974 22.323667851369073
  endloop
endfacet
facet normal 0.45399049973952393 0.8910065241883796 -1.7644255194142758e-16
  outer loop
    vertex 1.8017675631131154 39.990471831889835 22.32366785136908
    vertex 1.9411516920718725 39.91945207092974 8.499999999999991
    vertex 1.8017675631131098 39.990471831889835 8.499999999999991
  endloop
endfacet
facet normal 0.45399049973952393 0.8910065241883796 -1.7644255194142758e-16
  outer loop
    vertex 1.9411516920718725 39.91945207092974 8.499999999999991
    vertex 1.8017675631131154 39.990471831889835 22.32366785136908
    vertex 1.941151692071878 39.91945207092974 22.323667851369073
  endloop
endfacet
facet normal 0.15643446504024003 0.9876883405951363 -6.483172653940788e-17
  outer loop
    vertex 1.6472590659256425 40.01494357374226 22.323667851369084
    vertex 1.8017675631131098 39.990471831889835 8.499999999999991
    vertex 1.647259065925636 40.01494357374226 8.499999999999991
  endloop
endfacet
facet normal 0.15643446504024003 0.9876883405951363 -6.483172653940788e-17
  outer loop
    vertex 1.8017675631131098 39.990471831889835 8.499999999999991
    vertex 1.6472590659256425 40.01494357374226 22.323667851369084
    vertex 1.8017675631131154 39.990471831889835 22.32366785136908
  endloop
endfacet
facet normal 1.2491242684618187e-14 -1.0 4.777220978863003e-15
  outer loop
    vertex 2.147252887214259 38.95511402522304 22.99999999999999
    vertex 1.1472590659256163 38.955114025223025 17.703720590100872
    vertex 2.170880841888337 38.95511402522303 17.703720590100865
  endloop
endfacet
facet normal 1.2491242684618187e-14 -1.0 4.777220978863003e-15
  outer loop
    vertex 1.1472590659256163 38.955114025223025 17.703720590100872
    vertex 2.147252887214259 38.95511402522304 22.99999999999999
    vertex 1.1472590659256428 38.955114025223025 22.999999999999993
  endloop
endfacet
facet normal 0.8910065241883691 0.45399049973954414 -3.2777188626401584e-16
  outer loop
    vertex 2.0517675631131103 39.808836199888496 8.499999999999991
    vertex 2.1227873240732165 39.66945207092974 22.02366785136907
    vertex 2.122787324073213 39.66945207092974 8.499999999999991
  endloop
endfacet
facet normal 0.8910065241883691 0.45399049973954414 -3.2777188626401584e-16
  outer loop
    vertex 2.1227873240732165 39.66945207092974 22.02366785136907
    vertex 2.0517675631131103 39.808836199888496 8.499999999999991
    vertex 2.1227873240732182 39.66945207092974 22.32366785136907
  endloop
endfacet
facet normal 0.8910065241883691 0.45399049973954414 -3.2777188626401584e-16
  outer loop
    vertex 2.1227873240732182 39.66945207092974 22.32366785136907
    vertex 2.0517675631131103 39.808836199888496 8.499999999999991
    vertex 2.0517675631131156 39.808836199888496 22.32366785136907
  endloop
endfacet
facet normal 0.8910065241883611 0.4539904997395599 -3.135699871431038e-16
  outer loop
    vertex 2.0899641642381193 40.59127914943 7.499999999999992
    vertex 2.1325760208141817 40.50764867205475 8.499999999999991
    vertex 2.1325760208141817 40.50764867205475 7.499999999999992
  endloop
endfacet
facet normal 0.8910065241883611 0.4539904997395599 -3.135699871431038e-16
  outer loop
    vertex 2.1325760208141817 40.50764867205475 8.499999999999991
    vertex 2.0899641642381193 40.59127914943 7.499999999999992
    vertex 2.08996416423812 40.59127914943 8.499999999999991
  endloop
endfacet
facet normal 0.1564344650402339 0.9876883405951373 3.029659987997203e-16
  outer loop
    vertex 1.8472590659256358 40.71494357374226 8.499999999999991
    vertex 1.9399641642381218 40.7002605286308 7.499999999999992
    vertex 1.8472590659256378 40.71494357374226 7.499999999999992
  endloop
endfacet
facet normal 0.1564344650402339 0.9876883405951373 3.029659987997203e-16
  outer loop
    vertex 1.9399641642381218 40.7002605286308 7.499999999999992
    vertex 1.8472590659256358 40.71494357374226 8.499999999999991
    vertex 1.9399641642381205 40.7002605286308 8.499999999999991
  endloop
endfacet
facet normal 0.987688340595137 0.1564344650402355 -1.3110580580520302e-31
  outer loop
    vertex 2.1325760208141817 40.50764867205475 7.499999999999992
    vertex 2.147259065925636 40.414943573742256 8.499999999999991
    vertex 2.147259065925636 40.414943573742256 7.499999999999992
  endloop
endfacet
facet normal 0.987688340595137 0.1564344650402355 -1.3110580580520302e-31
  outer loop
    vertex 2.147259065925636 40.414943573742256 8.499999999999991
    vertex 2.1325760208141817 40.50764867205475 7.499999999999992
    vertex 2.1325760208141817 40.50764867205475 8.499999999999991
  endloop
endfacet
facet normal 0.45399049973953287 0.8910065241883751 6.390875545881929e-16
  outer loop
    vertex 1.9399641642381205 40.7002605286308 8.499999999999991
    vertex 2.0235946416133794 40.65764867205475 7.499999999999992
    vertex 1.9399641642381218 40.7002605286308 7.499999999999992
  endloop
endfacet
facet normal 0.45399049973953287 0.8910065241883751 6.390875545881929e-16
  outer loop
    vertex 2.0235946416133794 40.65764867205475 7.499999999999992
    vertex 1.9399641642381205 40.7002605286308 8.499999999999991
    vertex 2.023594641613378 40.65764867205475 8.499999999999991
  endloop
endfacet
facet normal 0.7071067811865681 0.7071067811865269 2.4885055077172457e-16
  outer loop
    vertex 2.0235946416133794 40.65764867205475 7.499999999999992
    vertex 2.08996416423812 40.59127914943 8.499999999999991
    vertex 2.0899641642381193 40.59127914943 7.499999999999992
  endloop
endfacet
facet normal 0.7071067811865681 0.7071067811865269 2.4885055077172457e-16
  outer loop
    vertex 2.08996416423812 40.59127914943 8.499999999999991
    vertex 2.0235946416133794 40.65764867205475 7.499999999999992
    vertex 2.023594641613378 40.65764867205475 8.499999999999991
  endloop
endfacet
facet normal 0.0 0.0 1.0
  outer loop
    vertex 1.9411516920718725 39.91945207092974 8.499999999999991
    vertex 2.147259065925636 40.01494357374226 8.499999999999991
    vertex 1.8017675631131098 39.990471831889835 8.499999999999991
  endloop
endfacet
facet normal 0.0 0.0 1.0
  outer loop
    vertex 2.147259065925636 40.01494357374226 8.499999999999991
    vertex 1.9411516920718725 39.91945207092974 8.499999999999991
    vertex 2.0517675631131103 39.808836199888496 8.499999999999991
  endloop
endfacet
facet normal 0.0 0.0 1.0
  outer loop
    vertex 2.147259065925636 40.01494357374226 8.499999999999991
    vertex 2.0517675631131103 39.808836199888496 8.499999999999991
    vertex 2.122787324073213 39.66945207092974 8.499999999999991
  endloop
endfacet
facet normal 0.9999999999390949 -1.1036772531841899e-05 -4.892899931977279e-16
  outer loop
    vertex 2.147259065925636 39.51494357374226 8.499999999999991
    vertex 2.147259065925643 39.51494357374226 22.99999999999998
    vertex 2.147252887214259 38.95511402522304 22.99999999999999
  endloop
endfacet
facet normal 0.9999999999390949 -1.1036772531841899e-05 -4.892899931977279e-16
  outer loop
    vertex 2.147259065925643 39.51494357374226 22.99999999999998
    vertex 2.147259065925636 39.51494357374226 8.499999999999991
    vertex 2.1350231949994294 39.51494357374226 22.02366785136907
  endloop
endfacet
facet normal 0.0 1.0 0.0
  outer loop
    vertex 1.5066064395493493 40.71494357374226 8.499999999999991
    vertex 1.8472590659256378 40.71494357374226 7.499999999999992
    vertex 1.5066064395493504 40.71494357374226 7.499999999999992
  endloop
endfacet
facet normal 0.0 1.0 0.0
  outer loop
    vertex 1.8472590659256378 40.71494357374226 7.499999999999992
    vertex 1.5066064395493493 40.71494357374226 8.499999999999991
    vertex 1.8472590659256358 40.71494357374226 8.499999999999991
  endloop
endfacet
facet normal 0.15643446504026293 0.9876883405951328 2.202145634616858e-16
  outer loop
    vertex 1.4139013412368648 40.729626618853715 8.499999999999991
    vertex 1.5066064395493504 40.71494357374226 7.499999999999992
    vertex 1.4139013412368664 40.729626618853715 7.499999999999992
  endloop
endfacet
facet normal 0.15643446504026293 0.9876883405951328 2.202145634616858e-16
  outer loop
    vertex 1.5066064395493504 40.71494357374226 7.499999999999992
    vertex 1.4139013412368648 40.729626618853715 8.499999999999991
    vertex 1.5066064395493493 40.71494357374226 8.499999999999991
  endloop
endfacet
facet normal -0.15643446504026304 0.9876883405951326 -1.3677923196362318e-17
  outer loop
    vertex -0.6933935604506508 40.71494357374226 8.499999999999991
    vertex -0.6006884621381666 40.729626618853715 7.499999999999992
    vertex -0.6933935604506507 40.71494357374226 7.499999999999992
  endloop
endfacet
facet normal -0.15643446504026304 0.9876883405951326 -1.3677923196362318e-17
  outer loop
    vertex -0.6006884621381666 40.729626618853715 7.499999999999992
    vertex -0.6933935604506508 40.71494357374226 8.499999999999991
    vertex -0.6006884621381666 40.729626618853715 8.499999999999991
  endloop
endfacet
facet normal 0.9999915964587894 0.0003401445498432309 0.0040855003961249295
  outer loop
    vertex 2.147259065925636 40.414943573742256 7.499999999999992
    vertex 2.1470758555016056 31.214943573742254 8.499999999999991
    vertex 2.147167460713621 31.214943573742254 7.499999999999992
  endloop
endfacet
facet normal 0.9999915964587894 0.0003401445498432309 0.0040855003961249295
  outer loop
    vertex 2.1470758555016056 31.214943573742254 8.499999999999991
    vertex 2.147259065925636 40.414943573742256 7.499999999999992
    vertex 2.147259065925636 39.51494357374226 8.499999999999991
  endloop
endfacet
facet normal 0.9999915964587894 0.0003401445498432309 0.0040855003961249295
  outer loop
    vertex 2.147259065925636 39.51494357374226 8.499999999999991
    vertex 2.147259065925636 40.414943573742256 7.499999999999992
    vertex 2.122787324073213 39.66945207092974 8.499999999999991
  endloop
endfacet
facet normal 0.9999915964587894 0.0003401445498432309 0.0040855003961249295
  outer loop
    vertex 2.122787324073213 39.66945207092974 8.499999999999991
    vertex 2.147259065925636 40.414943573742256 7.499999999999992
    vertex 2.147259065925636 40.01494357374226 8.499999999999991
  endloop
endfacet
facet normal 0.9999915964587894 0.0003401445498432309 0.0040855003961249295
  outer loop
    vertex 2.147259065925636 40.01494357374226 8.499999999999991
    vertex 2.147259065925636 40.414943573742256 7.499999999999992
    vertex 2.147259065925636 40.414943573742256 8.499999999999991
  endloop
endfacet
facet normal -2.0471598369241588e-16 1.0 -2.0224883481025284e-16
  outer loop
    vertex -0.7963220406995638 40.01494357374226 22.323667851369084
    vertex 1.647259065925636 40.01494357374226 8.499999999999991
    vertex -0.7963220406995671 40.01494357374226 8.499999999999991
  endloop
endfacet
facet normal -2.0471598369241588e-16 1.0 -2.0224883481025284e-16
  outer loop
    vertex 1.647259065925636 40.01494357374226 8.499999999999991
    vertex -0.7963220406995638 40.01494357374226 22.323667851369084
    vertex 1.147259065925635 40.014943573742265 22.323667851369077
  endloop
endfacet
facet normal -2.0471598369241588e-16 1.0 -2.0224883481025284e-16
  outer loop
    vertex 1.147259065925635 40.014943573742265 22.323667851369077
    vertex -0.7963220406995638 40.01494357374226 22.323667851369084
    vertex 0.17546851261303573 40.014943573742265 22.323667851369084
  endloop
endfacet
facet normal -2.0471598369241588e-16 1.0 -2.0224883481025284e-16
  outer loop
    vertex 1.6472590659256425 40.01494357374226 22.323667851369084
    vertex 1.647259065925636 40.01494357374226 8.499999999999991
    vertex 1.147259065925635 40.014943573742265 22.323667851369077
  endloop
endfacet
facet normal 0.0 -1.0 0.0
  outer loop
    vertex 1.8472590659256378 30.014943573742254 8.499999999999991
    vertex 1.4972590659256368 30.014943573742254 7.499999999999992
    vertex 1.8472590659256378 30.014943573742254 7.499999999999992
  endloop
endfacet
facet normal 0.0 -1.0 0.0
  outer loop
    vertex 1.4972590659256368 30.014943573742254 7.499999999999992
    vertex 1.8472590659256378 30.014943573742254 8.499999999999991
    vertex 1.4972590659256375 30.014943573742254 8.499999999999991
  endloop
endfacet
facet normal -0.15643446504026282 -0.9876883405951328 2.120078095438588e-17
  outer loop
    vertex -0.6100358357618794 30.000260528630797 8.499999999999991
    vertex -0.7027409340743639 30.014943573742254 7.499999999999992
    vertex -0.6100358357618797 30.000260528630797 7.499999999999992
  endloop
endfacet
facet normal -0.15643446504026282 -0.9876883405951328 2.120078095438588e-17
  outer loop
    vertex -0.7027409340743639 30.014943573742254 7.499999999999992
    vertex -0.6100358357618794 30.000260528630797 8.499999999999991
    vertex -0.7027409340743639 30.014943573742254 8.499999999999991
  endloop
endfacet
facet normal 0.9999999471316404 0.0003019144705955476 -0.00012076576093129039
  outer loop
    vertex 2.147017534197128 30.714944215897834 7.499998846841572
    vertex 2.147259065925636 30.314943573742255 8.499999999999991
    vertex 2.147259065925636 30.314943573742255 7.499999999999992
  endloop
endfacet
facet normal 0.9999999471316404 0.0003019144705955476 -0.00012076576093129039
  outer loop
    vertex 2.147259065925636 30.314943573742255 8.499999999999991
    vertex 2.147017534197128 30.714944215897834 7.499998846841572
    vertex 2.147259065925636 30.714943573742254 8.499999999999993
  endloop
endfacet
facet normal -1.0 -2.0186089724327197e-16 4.552641304848312e-16
  outer loop
    vertex -0.7963220406995569 31.214943573742246 23.023667851369126
    vertex -0.7963220406995596 29.214943573742286 22.32366785136911
    vertex -0.7963220406995571 29.21494357374228 23.023667851369108
  endloop
endfacet
facet normal -1.0 -2.0186089724327197e-16 4.552641304848312e-16
  outer loop
    vertex -0.7963220406995596 29.214943573742286 22.32366785136911
    vertex -0.7963220406995569 31.214943573742246 23.023667851369126
    vertex -0.7963220406995595 30.714943573742254 22.323667851369127
  endloop
endfacet
facet normal -1.0 -2.0186089724327197e-16 4.552641304848312e-16
  outer loop
    vertex -0.7963220406995595 30.714943573742254 22.323667851369127
    vertex -0.7963220406995569 31.214943573742246 23.023667851369126
    vertex -0.796322040699567 30.714943573742254 8.499999999999991
  endloop
endfacet
facet normal -1.0 -2.0186089724327197e-16 4.552641304848312e-16
  outer loop
    vertex -0.7963220406995604 39.51494357374226 22.999999999999993
    vertex -0.7963220406995638 40.01494357374226 22.323667851369084
    vertex -0.7963220406995671 39.51494357374226 8.499999999999991
  endloop
endfacet
facet normal -1.0 -2.0186089724327197e-16 4.552641304848312e-16
  outer loop
    vertex -0.7963220406995638 40.01494357374226 22.323667851369084
    vertex -0.7963220406995604 39.51494357374226 22.999999999999993
    vertex -0.7963220406995604 41.51494357374231 23.0
  endloop
endfacet
facet normal -1.0 -2.0186089724327197e-16 4.552641304848312e-16
  outer loop
    vertex -0.7963220406995638 40.01494357374226 22.323667851369084
    vertex -0.7963220406995604 41.51494357374231 23.0
    vertex -0.7963220406995638 41.51494357374231 22.32366785136909
  endloop
endfacet
facet normal -1.0 -2.0186089724327197e-16 4.552641304848312e-16
  outer loop
    vertex -0.796322040699567 30.714943573742254 8.499999999999991
    vertex -0.796322040699567 30.014943573742254 7.499999999999992
    vertex -0.796322040699567 30.014943573742254 8.499999999999991
  endloop
endfacet
facet normal -1.0 -2.0186089724327197e-16 4.552641304848312e-16
  outer loop
    vertex -0.796322040699567 30.014943573742254 7.499999999999992
    vertex -0.796322040699567 30.714943573742254 8.499999999999991
    vertex -0.7963220406995671 40.71494357374226 7.499999999999992
  endloop
endfacet
facet normal -1.0 -2.0186089724327197e-16 4.552641304848312e-16
  outer loop
    vertex -0.7963220406995671 40.71494357374226 7.499999999999992
    vertex -0.796322040699567 30.714943573742254 8.499999999999991
    vertex -0.7963220406995671 31.214943573742254 8.499999999999991
  endloop
endfacet
facet normal -1.0 -2.0186089724327197e-16 4.552641304848312e-16
  outer loop
    vertex -0.7963220406995671 31.214943573742254 8.499999999999991
    vertex -0.796322040699567 30.714943573742254 8.499999999999991
    vertex -0.7963220406995569 31.214943573742246 23.023667851369126
  endloop
endfacet
facet normal -1.0 -2.0186089724327197e-16 4.552641304848312e-16
  outer loop
    vertex -0.7963220406995671 40.71494357374226 7.499999999999992
    vertex -0.7963220406995671 31.214943573742254 8.499999999999991
    vertex -0.7963220406995671 39.51494357374226 8.499999999999991
  endloop
endfacet
facet normal -1.0 -2.0186089724327197e-16 4.552641304848312e-16
  outer loop
    vertex -0.7963220406995671 40.71494357374226 7.499999999999992
    vertex -0.7963220406995671 39.51494357374226 8.499999999999991
    vertex -0.7963220406995671 40.01494357374226 8.499999999999991
  endloop
endfacet
facet normal -1.0 -2.0186089724327197e-16 4.552641304848312e-16
  outer loop
    vertex -0.7963220406995671 40.01494357374226 8.499999999999991
    vertex -0.7963220406995671 39.51494357374226 8.499999999999991
    vertex -0.7963220406995638 40.01494357374226 22.323667851369084
  endloop
endfacet
facet normal -1.0 -2.0186089724327197e-16 4.552641304848312e-16
  outer loop
    vertex -0.7963220406995671 40.71494357374226 7.499999999999992
    vertex -0.7963220406995671 40.01494357374226 8.499999999999991
    vertex -0.7963220406995671 40.71494357374226 8.499999999999991
  endloop
endfacet
facet normal 0.9999614957546121 0.006635925049751859 0.005742082107808218
  outer loop
    vertex 2.147017534197128 30.714944215897834 7.499998846841572
    vertex 2.1226607271409166 31.060435076554782 8.499999999999991
    vertex 2.147259065925636 30.714943573742254 8.499999999999993
  endloop
endfacet
facet normal 0.9999614957546121 0.006635925049751859 0.005742082107808218
  outer loop
    vertex 2.1226607271409166 31.060435076554782 8.499999999999991
    vertex 2.147017534197128 30.714944215897834 7.499998846841572
    vertex 2.147167460713621 31.214943573742254 7.499999999999992
  endloop
endfacet
facet normal 0.9999614957546121 0.006635925049751859 0.005742082107808218
  outer loop
    vertex 2.1226607271409166 31.060435076554782 8.499999999999991
    vertex 2.147167460713621 31.214943573742254 7.499999999999992
    vertex 2.1470758555016056 31.214943573742254 8.499999999999991
  endloop
endfacet
facet normal -7.681871484540235e-17 -1.0994487094190035e-15 1.0
  outer loop
    vertex -0.7027409340743639 30.014943573742254 8.499999999999991
    vertex -0.796322040699567 30.714943573742254 8.499999999999991
    vertex -0.796322040699567 30.014943573742254 8.499999999999991
  endloop
endfacet
facet normal -7.681871484540235e-17 -1.0994487094190035e-15 1.0
  outer loop
    vertex -0.796322040699567 30.714943573742254 8.499999999999991
    vertex -0.7027409340743639 30.014943573742254 8.499999999999991
    vertex 1.6472590323595784 30.714943573742254 8.499999999999993
  endloop
endfacet
facet normal -7.681871484540235e-17 -1.0994487094190035e-15 1.0
  outer loop
    vertex 1.6472590323595784 30.714943573742254 8.499999999999993
    vertex -0.7027409340743639 30.014943573742254 8.499999999999991
    vertex -0.6100358357618794 30.000260528630797 8.499999999999991
  endloop
endfacet
facet normal -7.681871484540235e-17 -1.0994487094190035e-15 1.0
  outer loop
    vertex 1.6472590323595784 30.714943573742254 8.499999999999993
    vertex -0.6100358357618794 30.000260528630797 8.499999999999991
    vertex 1.4045539676131529 30.000260528630797 8.499999999999991
  endloop
endfacet
facet normal -7.681871484540235e-17 -1.0994487094190035e-15 1.0
  outer loop
    vertex 1.6472590323595784 30.714943573742254 8.499999999999993
    vertex 1.4045539676131529 30.000260528630797 8.499999999999991
    vertex 1.4972590659256375 30.014943573742254 8.499999999999991
  endloop
endfacet
facet normal -7.681871484540235e-17 -1.0994487094190035e-15 1.0
  outer loop
    vertex 1.6472590323595784 30.714943573742254 8.499999999999993
    vertex 1.4972590659256375 30.014943573742254 8.499999999999991
    vertex 1.8472590659256378 30.014943573742254 8.499999999999991
  endloop
endfacet
facet normal -7.681871484540235e-17 -1.0994487094190035e-15 1.0
  outer loop
    vertex 1.6472590323595784 30.714943573742254 8.499999999999993
    vertex 1.8472590659256378 30.014943573742254 8.499999999999991
    vertex 1.8017585729631318 30.739415315594677 8.499999999999993
  endloop
endfacet
facet normal -7.681871484540235e-17 -1.0994487094190035e-15 1.0
  outer loop
    vertex 1.8017585729631318 30.739415315594677 8.499999999999993
    vertex 1.8472590659256378 30.014943573742254 8.499999999999991
    vertex 1.9411166881580053 30.810435076554782 8.499999999999993
  endloop
endfacet
facet normal -7.681871484540235e-17 -1.0994487094190035e-15 1.0
  outer loop
    vertex 1.9411166881580053 30.810435076554782 8.499999999999993
    vertex 1.8472590659256378 30.014943573742254 8.499999999999991
    vertex 1.9399641642381218 30.029626618853705 8.499999999999991
  endloop
endfacet
facet normal -7.681871484540235e-17 -1.0994487094190035e-15 1.0
  outer loop
    vertex 1.9411166881580053 30.810435076554782 8.499999999999993
    vertex 1.9399641642381218 30.029626618853705 8.499999999999991
    vertex 2.0235946416133794 30.07223847542977 8.499999999999991
  endloop
endfacet
facet normal -7.681871484540235e-17 -1.0994487094190035e-15 1.0
  outer loop
    vertex 1.9411166881580053 30.810435076554782 8.499999999999993
    vertex 2.0235946416133794 30.07223847542977 8.499999999999991
    vertex 2.0516920346638443 30.92105094759602 8.499999999999993
  endloop
endfacet
facet normal -7.681871484540235e-17 -1.0994487094190035e-15 1.0
  outer loop
    vertex 2.0516920346638443 30.92105094759602 8.499999999999993
    vertex 2.0235946416133794 30.07223847542977 8.499999999999991
    vertex 2.0899641642381193 30.13860799805451 8.499999999999991
  endloop
endfacet
facet normal -7.681871484540235e-17 -1.0994487094190035e-15 1.0
  outer loop
    vertex 2.0516920346638443 30.92105094759602 8.499999999999993
    vertex 2.0899641642381193 30.13860799805451 8.499999999999991
    vertex 2.1226607271409166 31.060435076554782 8.499999999999991
  endloop
endfacet
facet normal -7.681871484540235e-17 -1.0994487094190035e-15 1.0
  outer loop
    vertex 2.1226607271409166 31.060435076554782 8.499999999999991
    vertex 2.0899641642381193 30.13860799805451 8.499999999999991
    vertex 2.1325760208141817 30.222238475429773 8.499999999999991
  endloop
endfacet
facet normal -7.681871484540235e-17 -1.0994487094190035e-15 1.0
  outer loop
    vertex 2.1226607271409166 31.060435076554782 8.499999999999991
    vertex 2.1325760208141817 30.222238475429773 8.499999999999991
    vertex 2.147259065925636 30.714943573742254 8.499999999999993
  endloop
endfacet
facet normal -7.681871484540235e-17 -1.0994487094190035e-15 1.0
  outer loop
    vertex 2.147259065925636 30.714943573742254 8.499999999999993
    vertex 2.1325760208141817 30.222238475429773 8.499999999999991
    vertex 2.147259065925636 30.314943573742255 8.499999999999991
  endloop
endfacet
facet normal 0.8910065241883672 -0.45399049973954797 4.428419905926393e-31
  outer loop
    vertex 2.1325760208141817 30.222238475429773 7.499999999999992
    vertex 2.0899641642381193 30.13860799805451 8.499999999999991
    vertex 2.0899641642381193 30.13860799805451 7.499999999999992
  endloop
endfacet
facet normal 0.8910065241883672 -0.45399049973954797 4.428419905926393e-31
  outer loop
    vertex 2.0899641642381193 30.13860799805451 8.499999999999991
    vertex 2.1325760208141817 30.222238475429773 7.499999999999992
    vertex 2.1325760208141817 30.222238475429773 8.499999999999991
  endloop
endfacet
facet normal 0.1564344650402629 -0.9876883405951328 -5.5395588945330894e-17
  outer loop
    vertex 1.4972590659256375 30.014943573742254 8.499999999999991
    vertex 1.4045539676131529 30.000260528630797 7.499999999999992
    vertex 1.4972590659256368 30.014943573742254 7.499999999999992
  endloop
endfacet
facet normal 0.1564344650402629 -0.9876883405951328 -5.5395588945330894e-17
  outer loop
    vertex 1.4045539676131529 30.000260528630797 7.499999999999992
    vertex 1.4972590659256375 30.014943573742254 8.499999999999991
    vertex 1.4045539676131529 30.000260528630797 8.499999999999991
  endloop
endfacet
facet normal 0.7071067811865457 -0.7071067811865493 1.5456555948550303e-18
  outer loop
    vertex 2.0899641642381193 30.13860799805451 8.499999999999991
    vertex 2.0235946416133794 30.07223847542977 7.499999999999992
    vertex 2.0899641642381193 30.13860799805451 7.499999999999992
  endloop
endfacet
facet normal 0.7071067811865457 -0.7071067811865493 1.5456555948550303e-18
  outer loop
    vertex 2.0235946416133794 30.07223847542977 7.499999999999992
    vertex 2.0899641642381193 30.13860799805451 8.499999999999991
    vertex 2.0235946416133794 30.07223847542977 8.499999999999991
  endloop
endfacet
facet normal 0.15643446504023362 -0.9876883405951373 -7.774999173975305e-32
  outer loop
    vertex 1.9399641642381218 30.029626618853705 8.499999999999991
    vertex 1.8472590659256378 30.014943573742254 7.499999999999992
    vertex 1.9399641642381218 30.029626618853705 7.499999999999992
  endloop
endfacet
facet normal 0.15643446504023362 -0.9876883405951373 -7.774999173975305e-32
  outer loop
    vertex 1.8472590659256378 30.014943573742254 7.499999999999992
    vertex 1.9399641642381218 30.029626618853705 8.499999999999991
    vertex 1.8472590659256378 30.014943573742254 8.499999999999991
  endloop
endfacet
facet normal 0.45399049973954486 -0.8910065241883689 0.0
  outer loop
    vertex 2.0235946416133794 30.07223847542977 8.499999999999991
    vertex 1.9399641642381218 30.029626618853705 7.499999999999992
    vertex 2.0235946416133794 30.07223847542977 7.499999999999992
  endloop
endfacet
facet normal 0.45399049973954486 -0.8910065241883689 0.0
  outer loop
    vertex 1.9399641642381218 30.029626618853705 7.499999999999992
    vertex 2.0235946416133794 30.07223847542977 8.499999999999991
    vertex 1.9399641642381218 30.029626618853705 8.499999999999991
  endloop
endfacet
facet normal 0.9876883405951381 -0.1564344650402294 3.353941446333278e-31
  outer loop
    vertex 2.147259065925636 30.314943573742255 7.499999999999992
    vertex 2.1325760208141817 30.222238475429773 8.499999999999991
    vertex 2.1325760208141817 30.222238475429773 7.499999999999992
  endloop
endfacet
facet normal 0.9876883405951381 -0.1564344650402294 3.353941446333278e-31
  outer loop
    vertex 2.1325760208141817 30.222238475429773 8.499999999999991
    vertex 2.147259065925636 30.314943573742255 7.499999999999992
    vertex 2.147259065925636 30.314943573742255 8.499999999999991
  endloop
endfacet
facet normal 0.0 -1.0 0.0
  outer loop
    vertex -0.7027409340743639 30.014943573742254 8.499999999999991
    vertex -0.796322040699567 30.014943573742254 7.499999999999992
    vertex -0.7027409340743639 30.014943573742254 7.499999999999992
  endloop
endfacet
facet normal 0.0 -1.0 0.0
  outer loop
    vertex -0.796322040699567 30.014943573742254 7.499999999999992
    vertex -0.7027409340743639 30.014943573742254 8.499999999999991
    vertex -0.796322040699567 30.014943573742254 8.499999999999991
  endloop
endfacet
facet normal 0.0 1.0 0.0
  outer loop
    vertex -0.7963220406995671 40.71494357374226 8.499999999999991
    vertex -0.6933935604506507 40.71494357374226 7.499999999999992
    vertex -0.7963220406995671 40.71494357374226 7.499999999999992
  endloop
endfacet
facet normal 0.0 1.0 0.0
  outer loop
    vertex -0.6933935604506507 40.71494357374226 7.499999999999992
    vertex -0.7963220406995671 40.71494357374226 8.499999999999991
    vertex -0.6933935604506508 40.71494357374226 8.499999999999991
  endloop
endfacet
facet normal 1.8301081215598252e-05 0.9999999998319131 -1.1155417326807876e-06
  outer loop
    vertex 1.1472590659256086 34.15612476469512 17.703720590100872
    vertex 2.1471999218613917 34.15612476469512 17.877072826297596
    vertex 2.147199921861374 34.15612476469512 17.703720590100865
  endloop
endfacet
facet normal 1.8301081215598252e-05 0.9999999998319131 -1.1155417326807876e-06
  outer loop
    vertex 2.1471999218613917 34.15612476469512 17.877072826297596
    vertex 1.1472590659256086 34.15612476469512 17.703720590100872
    vertex 1.1472590659256463 34.15612476469511 23.023667851369122
  endloop
endfacet
facet normal 1.8301081215598252e-05 0.9999999998319131 -1.1155417326807876e-06
  outer loop
    vertex 2.1471999218613917 34.15612476469512 17.877072826297596
    vertex 1.1472590659256463 34.15612476469511 23.023667851369122
    vertex 2.1577661101762713 34.156048726120545 18.88234166272501
  endloop
endfacet
facet normal 1.8301081215598252e-05 0.9999999998319131 -1.1155417326807876e-06
  outer loop
    vertex 2.1577661101762713 34.156048726120545 18.88234166272501
    vertex 1.1472590659256463 34.15612476469511 23.023667851369122
    vertex 2.1471999218614113 34.15612476469511 23.02366785136912
  endloop
endfacet
facet normal 0.9999999997360114 -2.2090100676276794e-05 -6.324933500340816e-06
  outer loop
    vertex 2.1470758555016056 31.214943573742254 8.499999999999991
    vertex 2.147199921861374 34.15612476469512 17.703720590100865
    vertex 2.1471674607136317 31.214943573742275 23.023667851369108
  endloop
endfacet
facet normal 0.9999999997360114 -2.2090100676276794e-05 -6.324933500340816e-06
  outer loop
    vertex 2.147199921861374 34.15612476469512 17.703720590100865
    vertex 2.1470758555016056 31.214943573742254 8.499999999999991
    vertex 2.147259065925636 39.51494357374226 8.499999999999991
  endloop
endfacet
facet normal 0.9999999997360114 -2.2090100676276794e-05 -6.324933500340816e-06
  outer loop
    vertex 2.147199921861374 34.15612476469512 17.703720590100865
    vertex 2.147259065925636 39.51494357374226 8.499999999999991
    vertex 2.1472010152469263 34.25519227127524 17.703720590100865
  endloop
endfacet
facet normal 0.9999999997360114 -2.2090100676276794e-05 -6.324933500340816e-06
  outer loop
    vertex 2.1471999218613917 34.15612476469512 17.877072826297596
    vertex 2.1471674607136317 31.214943573742275 23.023667851369108
    vertex 2.147199921861374 34.15612476469512 17.703720590100865
  endloop
endfacet
facet normal 3.1657768162110184e-15 -1.0 3.5489906319507883e-16
  outer loop
    vertex 1.6472590323595862 30.714943573742282 22.323667851369112
    vertex 1.1472590659256388 30.714943573742246 22.323667851369105
    vertex 1.6472590323595784 30.714943573742254 8.499999999999993
  endloop
endfacet
facet normal 3.1657768162110184e-15 -1.0 3.5489906319507883e-16
  outer loop
    vertex 1.6472590323595784 30.714943573742254 8.499999999999993
    vertex -0.7963220406995595 30.714943573742254 22.323667851369127
    vertex -0.796322040699567 30.714943573742254 8.499999999999991
  endloop
endfacet
facet normal 3.1657768162110184e-15 -1.0 3.5489906319507883e-16
  outer loop
    vertex -0.7963220406995595 30.714943573742254 22.323667851369127
    vertex 1.6472590323595784 30.714943573742254 8.499999999999993
    vertex 0.19086510273523744 30.714943573742254 22.323667851369105
  endloop
endfacet
facet normal 3.1657768162110184e-15 -1.0 3.5489906319507883e-16
  outer loop
    vertex 0.19086510273523744 30.714943573742254 22.323667851369105
    vertex 1.6472590323595784 30.714943573742254 8.499999999999993
    vertex 1.1472590659256388 30.714943573742246 22.323667851369105
  endloop
endfacet
facet normal 0.8910945473287604 -0.45381770317024983 -3.1985462885420098e-06
  outer loop
    vertex 2.1226607271409166 31.060435076554782 8.499999999999991
    vertex 2.051729795683211 30.921050947596044 22.32366785136911
    vertex 2.0516920346638443 30.92105094759602 8.499999999999993
  endloop
endfacet
facet normal 0.8910945473287604 -0.45381770317024983 -3.1985462885420098e-06
  outer loop
    vertex 2.051729795683211 30.921050947596044 22.32366785136911
    vertex 2.1226607271409166 31.060435076554782 8.499999999999991
    vertex 2.122724024785652 31.06043507655481 22.32366785136911
  endloop
endfacet
facet normal 0.7071931289440794 -0.7070204228820809 -1.387948119370454e-06
  outer loop
    vertex 2.0516920346638443 30.92105094759602 8.499999999999993
    vertex 1.9411341831967344 30.810435076554803 22.32366785136911
    vertex 1.9411166881580053 30.810435076554782 8.499999999999993
  endloop
endfacet
facet normal 0.7071931289440794 -0.7070204228820809 -1.387948119370454e-06
  outer loop
    vertex 1.9411341831967344 30.810435076554803 22.32366785136911
    vertex 2.0516920346638443 30.92105094759602 8.499999999999993
    vertex 2.051729795683211 30.921050947596044 22.32366785136911
  endloop
endfacet
facet normal 0.45403533911102506 -0.8909836759661822 -3.544404995163381e-07
  outer loop
    vertex 1.9411341831967344 30.810435076554803 22.32366785136911
    vertex 1.8017585729631318 30.739415315594677 8.499999999999993
    vertex 1.9411166881580053 30.810435076554782 8.499999999999993
  endloop
endfacet
facet normal 0.45403533911102506 -0.8909836759661822 -3.544404995163381e-07
  outer loop
    vertex 1.8017585729631318 30.739415315594677 8.499999999999993
    vertex 1.9411341831967344 30.810435076554803 22.32366785136911
    vertex 1.8017630564413405 30.739415315594705 22.323667851369112
  endloop
endfacet
facet normal 0.9997754375685834 -0.018401567722516388 -0.010509840146311764
  outer loop
    vertex 2.1471999218613917 34.15612476469512 17.877072826297596
    vertex 2.1577661101762713 34.156048726120545 18.88234166272501
    vertex 2.1471674607136317 31.214943573742275 23.023667851369108
  endloop
endfacet
facet normal 0.9999967451281433 -1.1036736608642355e-05 0.0025513939934173574
  outer loop
    vertex 2.1471999218614113 34.15612476469511 23.02366785136912
    vertex 2.1471674607136317 31.214943573742275 23.023667851369108
    vertex 2.1577661101762713 34.156048726120545 18.88234166272501
  endloop
endfacet
facet normal 5.583334346871318e-15 -1.5788748781433926e-17 1.0
  outer loop
    vertex 2.147199921861374 34.15612476469512 17.703720590100865
    vertex 1.1472590659256163 38.955114025223025 17.703720590100872
    vertex 1.1472590659256086 34.15612476469512 17.703720590100872
  endloop
endfacet
facet normal 5.583334346871318e-15 -1.5788748781433926e-17 1.0
  outer loop
    vertex 1.1472590659256163 38.955114025223025 17.703720590100872
    vertex 2.147199921861374 34.15612476469512 17.703720590100865
    vertex 2.1472010152469263 34.25519227127524 17.703720590100865
  endloop
endfacet
facet normal 5.583334346871318e-15 -1.5788748781433926e-17 1.0
  outer loop
    vertex 1.1472590659256163 38.955114025223025 17.703720590100872
    vertex 2.1472010152469263 34.25519227127524 17.703720590100865
    vertex 2.170880841888337 38.95511402522303 17.703720590100865
  endloop
endfacet
facet normal 0.999983180868798 -0.005038260125801019 -0.0028729626565306204
  outer loop
    vertex 2.147259065925636 39.51494357374226 8.499999999999991
    vertex 2.170880841888337 38.95511402522303 17.703720590100865
    vertex 2.1472010152469263 34.25519227127524 17.703720590100865
  endloop
endfacet
facet normal 0.9933817860117897 0.11477363441784902 0.004431711017751524
  outer loop
    vertex 2.147259065925636 39.51494357374226 8.499999999999991
    vertex 2.147252887214259 38.95511402522304 22.99999999999999
    vertex 2.170880841888337 38.95511402522303 17.703720590100865
  endloop
endfacet
facet normal 0.0 0.0 1.0
  outer loop
    vertex 1.647259065925636 40.01494357374226 8.499999999999991
    vertex -0.7963220406995671 40.71494357374226 8.499999999999991
    vertex -0.7963220406995671 40.01494357374226 8.499999999999991
  endloop
endfacet
facet normal 0.0 0.0 1.0
  outer loop
    vertex -0.7963220406995671 40.71494357374226 8.499999999999991
    vertex 1.647259065925636 40.01494357374226 8.499999999999991
    vertex -0.6933935604506508 40.71494357374226 8.499999999999991
  endloop
endfacet
facet normal 0.0 0.0 1.0
  outer loop
    vertex -0.6933935604506508 40.71494357374226 8.499999999999991
    vertex 1.647259065925636 40.01494357374226 8.499999999999991
    vertex -0.6006884621381666 40.729626618853715 8.499999999999991
  endloop
endfacet
facet normal 0.0 0.0 1.0
  outer loop
    vertex -0.6006884621381666 40.729626618853715 8.499999999999991
    vertex 1.647259065925636 40.01494357374226 8.499999999999991
    vertex 1.4139013412368648 40.729626618853715 8.499999999999991
  endloop
endfacet
facet normal 0.0 0.0 1.0
  outer loop
    vertex 1.4139013412368648 40.729626618853715 8.499999999999991
    vertex 1.647259065925636 40.01494357374226 8.499999999999991
    vertex 1.5066064395493493 40.71494357374226 8.499999999999991
  endloop
endfacet
facet normal 0.0 0.0 1.0
  outer loop
    vertex 1.5066064395493493 40.71494357374226 8.499999999999991
    vertex 1.647259065925636 40.01494357374226 8.499999999999991
    vertex 1.8472590659256358 40.71494357374226 8.499999999999991
  endloop
endfacet
facet normal 0.0 0.0 1.0
  outer loop
    vertex 1.8472590659256358 40.71494357374226 8.499999999999991
    vertex 1.647259065925636 40.01494357374226 8.499999999999991
    vertex 1.8017675631131098 39.990471831889835 8.499999999999991
  endloop
endfacet
facet normal 0.0 0.0 1.0
  outer loop
    vertex 1.8472590659256358 40.71494357374226 8.499999999999991
    vertex 1.8017675631131098 39.990471831889835 8.499999999999991
    vertex 2.147259065925636 40.01494357374226 8.499999999999991
  endloop
endfacet
facet normal 0.0 0.0 1.0
  outer loop
    vertex 1.8472590659256358 40.71494357374226 8.499999999999991
    vertex 2.147259065925636 40.01494357374226 8.499999999999991
    vertex 1.9399641642381205 40.7002605286308 8.499999999999991
  endloop
endfacet
facet normal 0.0 0.0 1.0
  outer loop
    vertex 1.9399641642381205 40.7002605286308 8.499999999999991
    vertex 2.147259065925636 40.01494357374226 8.499999999999991
    vertex 2.023594641613378 40.65764867205475 8.499999999999991
  endloop
endfacet
facet normal 0.0 0.0 1.0
  outer loop
    vertex 2.023594641613378 40.65764867205475 8.499999999999991
    vertex 2.147259065925636 40.01494357374226 8.499999999999991
    vertex 2.08996416423812 40.59127914943 8.499999999999991
  endloop
endfacet
facet normal 0.0 0.0 1.0
  outer loop
    vertex 2.08996416423812 40.59127914943 8.499999999999991
    vertex 2.147259065925636 40.01494357374226 8.499999999999991
    vertex 2.1325760208141817 40.50764867205475 8.499999999999991
  endloop
endfacet
facet normal 0.0 0.0 1.0
  outer loop
    vertex 2.1325760208141817 40.50764867205475 8.499999999999991
    vertex 2.147259065925636 40.01494357374226 8.499999999999991
    vertex 2.147259065925636 40.414943573742256 8.499999999999991
  endloop
endfacet
facet normal 0.0 1.0 0.0
  outer loop
    vertex -0.6006884621381666 40.729626618853715 8.499999999999991
    vertex 1.4139013412368664 40.729626618853715 7.499999999999992
    vertex -0.6006884621381666 40.729626618853715 7.499999999999992
  endloop
endfacet
facet normal 0.0 1.0 0.0
  outer loop
    vertex 1.4139013412368664 40.729626618853715 7.499999999999992
    vertex -0.6006884621381666 40.729626618853715 8.499999999999991
    vertex 1.4139013412368648 40.729626618853715 8.499999999999991
  endloop
endfacet
facet normal 0.0 -1.0 0.0
  outer loop
    vertex 1.4045539676131529 30.000260528630797 8.499999999999991
    vertex -0.6100358357618797 30.000260528630797 7.499999999999992
    vertex 1.4045539676131529 30.000260528630797 7.499999999999992
  endloop
endfacet
facet normal 0.0 -1.0 0.0
  outer loop
    vertex -0.6100358357618797 30.000260528630797 7.499999999999992
    vertex 1.4045539676131529 30.000260528630797 8.499999999999991
    vertex -0.6100358357618794 30.000260528630797 8.499999999999991
  endloop
endfacet
facet normal 0.15644035935828696 -0.9876874070088418 -2.4912604843690266e-08
  outer loop
    vertex 1.8017630564413405 30.739415315594705 22.323667851369112
    vertex 1.6472590323595784 30.714943573742254 8.499999999999993
    vertex 1.8017585729631318 30.739415315594677 8.499999999999993
  endloop
endfacet
facet normal 0.15644035935828696 -0.9876874070088418 -2.4912604843690266e-08
  outer loop
    vertex 1.6472590323595784 30.714943573742254 8.499999999999993
    vertex 1.8017630564413405 30.739415315594705 22.323667851369112
    vertex 1.6472590323595862 30.714943573742282 22.323667851369112
  endloop
endfacet
facet normal -9.997985442331221e-15 4.699944137579927e-15 -1.0
  outer loop
    vertex -0.7963220406995595 30.714943573742254 22.323667851369127
    vertex 0.19086510273523744 29.214943573742286 22.32366785136911
    vertex -0.7963220406995596 29.214943573742286 22.32366785136911
  endloop
endfacet
facet normal -9.997985442331221e-15 4.699944137579927e-15 -1.0
  outer loop
    vertex 0.19086510273523744 29.214943573742286 22.32366785136911
    vertex -0.7963220406995595 30.714943573742254 22.323667851369127
    vertex 0.19086510273523744 30.714943573742254 22.323667851369105
  endloop
endfacet
facet normal 0.0 -1.0 0.0
  outer loop
    vertex 2.1472574020766126 41.51494357374231 22.99999999999998
    vertex 1.147259065925635 41.51494357374231 22.323667851369077
    vertex 2.1472574020766104 41.51494357374231 22.32366785136907
  endloop
endfacet
facet normal 0.0 -1.0 0.0
  outer loop
    vertex 1.147259065925635 41.51494357374231 22.323667851369077
    vertex 2.1472574020766126 41.51494357374231 22.99999999999998
    vertex 1.1472590659256388 41.51494357374231 22.999999999999986
  endloop
endfacet
facet normal 5.405260445822869e-15 1.3076975792210809e-15 1.0
  outer loop
    vertex 2.147252887214259 38.95511402522304 22.99999999999999
    vertex 1.1472590659256447 39.51494357374226 22.999999999999993
    vertex 1.1472590659256428 38.955114025223025 22.999999999999993
  endloop
endfacet
facet normal 5.405260445822869e-15 1.3076975792210809e-15 1.0
  outer loop
    vertex 1.1472590659256447 39.51494357374226 22.999999999999993
    vertex 2.147252887214259 38.95511402522304 22.99999999999999
    vertex 2.1350231307297185 39.669452081109 22.99999999999998
  endloop
endfacet
facet normal 5.405260445822869e-15 1.3076975792210809e-15 1.0
  outer loop
    vertex 2.1350231307297185 39.669452081109 22.99999999999998
    vertex 2.147252887214259 38.95511402522304 22.99999999999999
    vertex 2.147259065925643 39.51494357374226 22.99999999999998
  endloop
endfacet
facet normal 5.405260445822869e-15 1.3076975792210809e-15 1.0
  outer loop
    vertex -0.7963220406995604 39.51494357374226 22.999999999999993
    vertex 0.17546851261303925 40.014943573742265 22.999999999999993
    vertex -0.7963220406995604 41.51494357374231 23.0
  endloop
endfacet
facet normal 5.405260445822869e-15 1.3076975792210809e-15 1.0
  outer loop
    vertex 0.17546851261303925 40.014943573742265 22.999999999999993
    vertex -0.7963220406995604 39.51494357374226 22.999999999999993
    vertex 1.1472590659256447 39.51494357374226 22.999999999999993
  endloop
endfacet
facet normal 5.405260445822869e-15 1.3076975792210809e-15 1.0
  outer loop
    vertex 0.17546851261303925 40.014943573742265 22.999999999999993
    vertex 1.1472590659256447 39.51494357374226 22.999999999999993
    vertex 1.1472590659256388 40.014943573742265 22.999999999999986
  endloop
endfacet
facet normal 5.405260445822869e-15 1.3076975792210809e-15 1.0
  outer loop
    vertex 1.1472590659256388 40.014943573742265 22.999999999999986
    vertex 1.1472590659256447 39.51494357374226 22.999999999999993
    vertex 1.1472590659256388 41.51494357374231 22.999999999999986
  endloop
endfacet
facet normal 5.405260445822869e-15 1.3076975792210809e-15 1.0
  outer loop
    vertex 1.1472590659256388 41.51494357374231 22.999999999999986
    vertex 1.1472590659256447 39.51494357374226 22.999999999999993
    vertex 2.1472574020766126 41.51494357374231 22.99999999999998
  endloop
endfacet
facet normal 5.405260445822869e-15 1.3076975792210809e-15 1.0
  outer loop
    vertex 2.1472574020766126 41.51494357374231 22.99999999999998
    vertex 1.1472590659256447 39.51494357374226 22.999999999999993
    vertex 2.1350231307297185 39.669452081109 22.99999999999998
  endloop
endfacet
facet normal 5.405260445822869e-15 1.3076975792210809e-15 1.0
  outer loop
    vertex 0.17546851261303925 41.51494357374231 22.999999999999993
    vertex -0.7963220406995604 41.51494357374231 23.0
    vertex 0.17546851261303925 40.014943573742265 22.999999999999993
  endloop
endfacet
facet normal 0.9877297337402255 -0.15617289476102073 -5.237004436958689e-06
  outer loop
    vertex 2.1470758555016056 31.214943573742254 8.499999999999991
    vertex 2.122724024785652 31.06043507655481 22.32366785136911
    vertex 2.1226607271409166 31.060435076554782 8.499999999999991
  endloop
endfacet
facet normal 0.9877297337402255 -0.15617289476102073 -5.237004436958689e-06
  outer loop
    vertex 2.122724024785652 31.06043507655481 22.32366785136911
    vertex 2.1471674607136317 31.214943573742275 23.023667851369108
    vertex 2.122724024785655 31.060435076554803 23.023667851369108
  endloop
endfacet
facet normal 0.9877297337402255 -0.15617289476102073 -5.237004436958689e-06
  outer loop
    vertex 2.1471674607136317 31.214943573742275 23.023667851369108
    vertex 2.122724024785652 31.06043507655481 22.32366785136911
    vertex 2.1470758555016056 31.214943573742254 8.499999999999991
  endloop
endfacet
facet normal 3.865089485045984e-15 -2.7430803559060706e-15 1.0
  outer loop
    vertex 2.1471674607136317 29.21494357374228 23.023667851369108
    vertex 1.1472590659256388 30.714943573742246 23.023667851369108
    vertex 1.1472590659256388 29.21494357374228 23.023667851369108
  endloop
endfacet
facet normal 3.865089485045984e-15 -2.7430803559060706e-15 1.0
  outer loop
    vertex 1.1472590659256388 30.714943573742246 23.023667851369108
    vertex 2.1471674607136317 29.21494357374228 23.023667851369108
    vertex 1.147259065925648 31.214943573742246 23.023667851369126
  endloop
endfacet
facet normal 3.865089485045984e-15 -2.7430803559060706e-15 1.0
  outer loop
    vertex 1.147259065925648 31.214943573742246 23.023667851369126
    vertex 2.1471674607136317 29.21494357374228 23.023667851369108
    vertex 2.122724024785655 31.060435076554803 23.023667851369108
  endloop
endfacet
facet normal 3.865089485045984e-15 -2.7430803559060706e-15 1.0
  outer loop
    vertex 2.122724024785655 31.060435076554803 23.023667851369108
    vertex 2.1471674607136317 29.21494357374228 23.023667851369108
    vertex 2.1471674607136317 29.814943573742276 23.023667851369108
  endloop
endfacet
facet normal 3.865089485045984e-15 -2.7430803559060706e-15 1.0
  outer loop
    vertex 1.147259065925648 31.214943573742246 23.023667851369126
    vertex 2.1471999218614113 34.15612476469511 23.02366785136912
    vertex 1.1472590659256463 34.15612476469511 23.023667851369122
  endloop
endfacet
facet normal 3.865089485045984e-15 -2.7430803559060706e-15 1.0
  outer loop
    vertex 2.1471999218614113 34.15612476469511 23.02366785136912
    vertex 1.147259065925648 31.214943573742246 23.023667851369126
    vertex 2.122724024785655 31.060435076554803 23.023667851369108
  endloop
endfacet
facet normal 3.865089485045984e-15 -2.7430803559060706e-15 1.0
  outer loop
    vertex 2.1471999218614113 34.15612476469511 23.02366785136912
    vertex 2.122724024785655 31.060435076554803 23.023667851369108
    vertex 2.1471674607136317 31.214943573742275 23.023667851369108
  endloop
endfacet
facet normal 3.865089485045984e-15 -2.7430803559060706e-15 1.0
  outer loop
    vertex 0.19086510273523988 29.21494357374228 23.023667851369108
    vertex -0.7963220406995569 31.214943573742246 23.023667851369126
    vertex -0.7963220406995571 29.21494357374228 23.023667851369108
  endloop
endfacet
facet normal 3.865089485045984e-15 -2.7430803559060706e-15 1.0
  outer loop
    vertex -0.7963220406995569 31.214943573742246 23.023667851369126
    vertex 0.19086510273523988 29.21494357374228 23.023667851369108
    vertex 0.19086510273523988 30.714943573742246 23.023667851369108
  endloop
endfacet
facet normal 3.865089485045984e-15 -2.7430803559060706e-15 1.0
  outer loop
    vertex -0.7963220406995569 31.214943573742246 23.023667851369126
    vertex 0.19086510273523988 30.714943573742246 23.023667851369108
    vertex 1.147259065925648 31.214943573742246 23.023667851369126
  endloop
endfacet
facet normal 3.865089485045984e-15 -2.7430803559060706e-15 1.0
  outer loop
    vertex 1.147259065925648 31.214943573742246 23.023667851369126
    vertex 0.19086510273523988 30.714943573742246 23.023667851369108
    vertex 1.1472590659256388 30.714943573742246 23.023667851369108
  endloop
endfacet
facet normal 1.0 1.9302772415083832e-29 -3.5249581031848685e-15
  outer loop
    vertex 2.147167460713629 29.214943573742286 22.32366785136911
    vertex 2.1471674607136317 29.814943573742276 23.023667851369108
    vertex 2.1471674607136317 29.21494357374228 23.023667851369108
  endloop
endfacet
facet normal 1.0 1.9302772415083832e-29 -3.5249581031848685e-15
  outer loop
    vertex 2.1471674607136317 29.814943573742276 23.023667851369108
    vertex 2.147167460713629 29.214943573742286 22.32366785136911
    vertex 2.147167460713629 29.814943573742283 22.32366785136911
  endloop
endfacet
facet normal 0.9998074748193385 0.019621755665030285 -3.413577286683362e-15
  outer loop
    vertex 2.147167460713629 29.814943573742283 22.32366785136911
    vertex 2.122724024785655 31.060435076554803 23.023667851369108
    vertex 2.1471674607136317 29.814943573742276 23.023667851369108
  endloop
endfacet
facet normal 0.9998074748193385 0.019621755665030285 -3.413577286683362e-15
  outer loop
    vertex 2.122724024785655 31.060435076554803 23.023667851369108
    vertex 2.147167460713629 29.814943573742283 22.32366785136911
    vertex 2.122724024785652 31.06043507655481 22.32366785136911
  endloop
endfacet
facet normal 0.993018365408857 0.1179589935279542 0.00044922888819920204
  outer loop
    vertex 2.122787324073213 39.66945207092974 8.499999999999991
    vertex 2.1350231949994294 39.51494357374226 22.02366785136907
    vertex 2.147259065925636 39.51494357374226 8.499999999999991
  endloop
endfacet
facet normal 0.993018365408857 0.1179589935279542 0.00044922888819920204
  outer loop
    vertex 2.1350231949994294 39.51494357374226 22.02366785136907
    vertex 2.122787324073213 39.66945207092974 8.499999999999991
    vertex 2.1227873240732165 39.66945207092974 22.02366785136907
  endloop
endfacet
facet normal 0.9999162685729265 -0.011048421734779663 -0.006737078028783875
  outer loop
    vertex 2.1472574020766104 41.51494357374231 22.32366785136907
    vertex 2.1350231307297185 39.669452081109 22.99999999999998
    vertex 2.1227873240732182 39.66945207092974 22.32366785136907
  endloop
endfacet
facet normal 0.9999162685729265 -0.011048421734779663 -0.006737078028783875
  outer loop
    vertex 2.1350231307297185 39.669452081109 22.99999999999998
    vertex 2.1472574020766104 41.51494357374231 22.32366785136907
    vertex 2.1472574020766126 41.51494357374231 22.99999999999998
  endloop
endfacet
facet normal 0.996143857162917 0.08677166764085875 -0.012965088947261616
  outer loop
    vertex 2.1227873240732165 39.66945207092974 22.02366785136907
    vertex 2.147259065925643 39.51494357374226 22.99999999999998
    vertex 2.1350231949994294 39.51494357374226 22.02366785136907
  endloop
endfacet
facet normal 0.996143857162917 0.08677166764085875 -0.012965088947261616
  outer loop
    vertex 2.147259065925643 39.51494357374226 22.99999999999998
    vertex 2.1227873240732165 39.66945207092974 22.02366785136907
    vertex 2.1227873240732182 39.66945207092974 22.32366785136907
  endloop
endfacet
facet normal 0.996143857162917 0.08677166764085875 -0.012965088947261616
  outer loop
    vertex 2.147259065925643 39.51494357374226 22.99999999999998
    vertex 2.1227873240732182 39.66945207092974 22.32366785136907
    vertex 2.1350231307297185 39.669452081109 22.99999999999998
  endloop
endfacet
facet normal 2.9018253706370337e-15 -1.8799776550318785e-15 1.0
  outer loop
    vertex 0.17546851261303573 40.014943573742265 22.323667851369084
    vertex -0.7963220406995638 41.51494357374231 22.32366785136909
    vertex -0.7963220406995638 40.01494357374226 22.323667851369084
  endloop
endfacet
facet normal 2.9018253706370337e-15 -1.8799776550318785e-15 1.0
  outer loop
    vertex -0.7963220406995638 41.51494357374231 22.32366785136909
    vertex 0.17546851261303573 40.014943573742265 22.323667851369084
    vertex 0.17546851261303573 41.51494357374231 22.323667851369084
  endloop
endfacet
facet normal -1.1156217958158076e-31 -1.0 -8.057047092993976e-15
  outer loop
    vertex 0.19086510273523988 29.21494357374228 23.023667851369108
    vertex -0.7963220406995596 29.214943573742286 22.32366785136911
    vertex 0.19086510273523744 29.214943573742286 22.32366785136911
  endloop
endfacet
facet normal -1.1156217958158076e-31 -1.0 -8.057047092993976e-15
  outer loop
    vertex -0.7963220406995596 29.214943573742286 22.32366785136911
    vertex 0.19086510273523988 29.21494357374228 23.023667851369108
    vertex -0.7963220406995571 29.21494357374228 23.023667851369108
  endloop
endfacet
facet normal 5.03772060602404e-15 -1.0 -4.028523546496996e-15
  outer loop
    vertex 2.1471674607136317 29.21494357374228 23.023667851369108
    vertex 1.1472590659256388 29.21494357374228 22.32366785136911
    vertex 2.147167460713629 29.214943573742286 22.32366785136911
  endloop
endfacet
facet normal 5.03772060602404e-15 -1.0 -4.028523546496996e-15
  outer loop
    vertex 1.1472590659256388 29.21494357374228 22.32366785136911
    vertex 2.1471674607136317 29.21494357374228 23.023667851369108
    vertex 1.1472590659256388 29.21494357374228 23.023667851369108
  endloop
endfacet
facet normal -2.019263725143764e-15 -1.0 -4.028523546496985e-15
  outer loop
    vertex 1.1472590659256388 30.714943573742246 23.023667851369108
    vertex 0.19086510273523744 30.714943573742254 22.323667851369105
    vertex 1.1472590659256388 30.714943573742246 22.323667851369105
  endloop
endfacet
facet normal -2.019263725143764e-15 -1.0 -4.028523546496985e-15
  outer loop
    vertex 0.19086510273523744 30.714943573742254 22.323667851369105
    vertex 1.1472590659256388 30.714943573742246 23.023667851369108
    vertex 0.19086510273523988 30.714943573742246 23.023667851369108
  endloop
endfacet
facet normal -1.0 0.0 0.0
  outer loop
    vertex 1.1472590659256388 30.714943573742246 23.023667851369108
    vertex 1.1472590659256388 29.21494357374228 22.32366785136911
    vertex 1.1472590659256388 29.21494357374228 23.023667851369108
  endloop
endfacet
facet normal -1.0 0.0 0.0
  outer loop
    vertex 1.1472590659256388 29.21494357374228 22.32366785136911
    vertex 1.1472590659256388 30.714943573742246 23.023667851369108
    vertex 1.1472590659256388 30.714943573742246 22.323667851369105
  endloop
endfacet
facet normal 1.0 -6.636334040156083e-30 -3.5249581031848645e-15
  outer loop
    vertex 0.19086510273523744 29.214943573742286 22.32366785136911
    vertex 0.19086510273523988 30.714943573742246 23.023667851369108
    vertex 0.19086510273523988 29.21494357374228 23.023667851369108
  endloop
endfacet
facet normal 1.0 -6.636334040156083e-30 -3.5249581031848645e-15
  outer loop
    vertex 0.19086510273523988 30.714943573742246 23.023667851369108
    vertex 0.19086510273523744 29.214943573742286 22.32366785136911
    vertex 0.19086510273523744 30.714943573742254 22.323667851369105
  endloop
endfacet
facet normal -1.676060005423055e-16 2.484466008686757e-16 -1.0
  outer loop
    vertex 1.6472590323595862 30.714943573742282 22.323667851369112
    vertex 1.1472590659256388 29.21494357374228 22.32366785136911
    vertex 1.1472590659256388 30.714943573742246 22.323667851369105
  endloop
endfacet
facet normal -1.676060005423055e-16 2.484466008686757e-16 -1.0
  outer loop
    vertex 1.1472590659256388 29.21494357374228 22.32366785136911
    vertex 1.6472590323595862 30.714943573742282 22.323667851369112
    vertex 2.147167460713629 29.214943573742286 22.32366785136911
  endloop
endfacet
facet normal -1.676060005423055e-16 2.484466008686757e-16 -1.0
  outer loop
    vertex 2.147167460713629 29.214943573742286 22.32366785136911
    vertex 1.6472590323595862 30.714943573742282 22.323667851369112
    vertex 1.8017630564413405 30.739415315594705 22.323667851369112
  endloop
endfacet
facet normal -1.676060005423055e-16 2.484466008686757e-16 -1.0
  outer loop
    vertex 2.147167460713629 29.214943573742286 22.32366785136911
    vertex 1.8017630564413405 30.739415315594705 22.323667851369112
    vertex 1.9411341831967344 30.810435076554803 22.32366785136911
  endloop
endfacet
facet normal -1.676060005423055e-16 2.484466008686757e-16 -1.0
  outer loop
    vertex 2.147167460713629 29.214943573742286 22.32366785136911
    vertex 1.9411341831967344 30.810435076554803 22.32366785136911
    vertex 2.051729795683211 30.921050947596044 22.32366785136911
  endloop
endfacet
facet normal -1.676060005423055e-16 2.484466008686757e-16 -1.0
  outer loop
    vertex 2.147167460713629 29.214943573742286 22.32366785136911
    vertex 2.051729795683211 30.921050947596044 22.32366785136911
    vertex 2.122724024785652 31.06043507655481 22.32366785136911
  endloop
endfacet
facet normal -1.676060005423055e-16 2.484466008686757e-16 -1.0
  outer loop
    vertex 2.147167460713629 29.214943573742286 22.32366785136911
    vertex 2.122724024785652 31.06043507655481 22.32366785136911
    vertex 2.147167460713629 29.814943573742283 22.32366785136911
  endloop
endfacet
facet normal 0.0 -1.0 0.0
  outer loop
    vertex 0.17546851261303925 41.51494357374231 22.999999999999993
    vertex -0.7963220406995638 41.51494357374231 22.32366785136909
    vertex 0.17546851261303573 41.51494357374231 22.323667851369084
  endloop
endfacet
facet normal 0.0 -1.0 0.0
  outer loop
    vertex -0.7963220406995638 41.51494357374231 22.32366785136909
    vertex 0.17546851261303925 41.51494357374231 22.999999999999993
    vertex -0.7963220406995604 41.51494357374231 23.0
  endloop
endfacet
facet normal 8.328943359547292e-15 9.578806492502185e-16 1.0
  outer loop
    vertex 1.6472590659256425 40.01494357374226 22.323667851369084
    vertex 1.147259065925635 41.51494357374231 22.323667851369077
    vertex 1.147259065925635 40.014943573742265 22.323667851369077
  endloop
endfacet
facet normal 8.328943359547292e-15 9.578806492502185e-16 1.0
  outer loop
    vertex 1.147259065925635 41.51494357374231 22.323667851369077
    vertex 1.6472590659256425 40.01494357374226 22.323667851369084
    vertex 2.1472574020766104 41.51494357374231 22.32366785136907
  endloop
endfacet
facet normal 8.328943359547292e-15 9.578806492502185e-16 1.0
  outer loop
    vertex 2.1472574020766104 41.51494357374231 22.32366785136907
    vertex 1.6472590659256425 40.01494357374226 22.323667851369084
    vertex 1.8017675631131154 39.990471831889835 22.32366785136908
  endloop
endfacet
facet normal 8.328943359547292e-15 9.578806492502185e-16 1.0
  outer loop
    vertex 2.1472574020766104 41.51494357374231 22.32366785136907
    vertex 1.8017675631131154 39.990471831889835 22.32366785136908
    vertex 1.941151692071878 39.91945207092974 22.323667851369073
  endloop
endfacet
facet normal 8.328943359547292e-15 9.578806492502185e-16 1.0
  outer loop
    vertex 2.1472574020766104 41.51494357374231 22.32366785136907
    vertex 1.941151692071878 39.91945207092974 22.323667851369073
    vertex 2.0517675631131156 39.808836199888496 22.32366785136907
  endloop
endfacet
facet normal 8.328943359547292e-15 9.578806492502185e-16 1.0
  outer loop
    vertex 2.1472574020766104 41.51494357374231 22.32366785136907
    vertex 2.0517675631131156 39.808836199888496 22.32366785136907
    vertex 2.1227873240732182 39.66945207092974 22.32366785136907
  endloop
endfacet
facet normal 0.0 -1.0 0.0
  outer loop
    vertex 1.1472590659256388 40.014943573742265 22.999999999999986
    vertex 0.17546851261303573 40.014943573742265 22.323667851369084
    vertex 1.147259065925635 40.014943573742265 22.323667851369077
  endloop
endfacet
facet normal 0.0 -1.0 0.0
  outer loop
    vertex 0.17546851261303573 40.014943573742265 22.323667851369084
    vertex 1.1472590659256388 40.014943573742265 22.999999999999986
    vertex 0.17546851261303925 40.014943573742265 22.999999999999993
  endloop
endfacet
facet normal 1.0 0.0 -5.472467952080087e-15
  outer loop
    vertex 1.147259065925635 41.51494357374231 22.323667851369077
    vertex 1.1472590659256388 40.014943573742265 22.999999999999986
    vertex 1.147259065925635 40.014943573742265 22.323667851369077
  endloop
endfacet
facet normal 1.0 0.0 -5.472467952080087e-15
  outer loop
    vertex 1.1472590659256388 40.014943573742265 22.999999999999986
    vertex 1.147259065925635 41.51494357374231 22.323667851369077
    vertex 1.1472590659256388 41.51494357374231 22.999999999999986
  endloop
endfacet
facet normal -1.0 0.0 5.342171096078203e-15
  outer loop
    vertex 0.17546851261303925 41.51494357374231 22.999999999999993
    vertex 0.17546851261303573 40.014943573742265 22.323667851369084
    vertex 0.17546851261303925 40.014943573742265 22.999999999999993
  endloop
endfacet
facet normal -1.0 0.0 5.342171096078203e-15
  outer loop
    vertex 0.17546851261303573 40.014943573742265 22.323667851369084
    vertex 0.17546851261303925 41.51494357374231 22.999999999999993
    vertex 0.17546851261303573 41.51494357374231 22.323667851369084
  endloop
endfacet
endsolid mouse
