solid probeCover400um_v2
facet normal 1.0 0.0 0.0
  outer loop
    vertex 33.594978991985734 70.65751730603041 19.60803126204326
    vertex 33.594978991985734 67.65575674106789 29.313892018491583
    vertex 33.594978991985734 67.65575674106789 9.602162712168225
  endloop
endfacet
facet normal 1.0 0.0 0.0
  outer loop
    vertex 33.594978991985734 67.65575674106789 29.313892018491583
    vertex 33.594978991985734 70.65751730603041 19.60803126204326
    vertex 33.594978991985734 73.6557567410679 29.313892018491583
  endloop
endfacet
facet normal 1.0 0.0 0.0
  outer loop
    vertex 33.594978991985734 73.6557567410679 29.313892018491583
    vertex 33.594978991985734 70.65751730603041 19.60803126204326
    vertex 33.594978991985734 73.6557567410679 9.613899811918303
  endloop
endfacet
facet normal -1.0 0.0 0.0
  outer loop
    vertex 33.194978991985735 73.2557567410679 29.313892018491583
    vertex 33.194978991985735 68.0557567410679 10.93549604550157
    vertex 33.194978991985735 68.0557567410679 29.313892018491583
  endloop
endfacet
facet normal -1.0 0.0 0.0
  outer loop
    vertex 33.194978991985735 68.0557567410679 10.93549604550157
    vertex 33.194978991985735 73.2557567410679 29.313892018491583
    vertex 33.194978991985735 70.65751730603039 19.60803126204325
  endloop
endfacet
facet normal -1.0 0.0 0.0
  outer loop
    vertex 33.194978991985735 70.65751730603039 19.60803126204325
    vertex 33.194978991985735 73.2557567410679 29.313892018491583
    vertex 33.194978991985735 73.2557567410679 10.947233145251616
  endloop
endfacet
facet normal 0.0 -1.0 0.0
  outer loop
    vertex 33.194978991985735 73.2557567410679 29.313892018491583
    vertex 24.494978991985732 73.2557567410679 10.947233145251634
    vertex 33.194978991985735 73.2557567410679 10.947233145251616
  endloop
endfacet
facet normal 0.0 -1.0 0.0
  outer loop
    vertex 24.494978991985732 73.2557567410679 10.947233145251634
    vertex 33.194978991985735 73.2557567410679 29.313892018491583
    vertex 24.494978991985732 73.2557567410679 29.313892018491583
  endloop
endfacet
facet normal -1.0 0.0 0.0
  outer loop
    vertex 24.09497899198573 67.65575674106789 29.313892018491583
    vertex 24.09497899198573 70.65751730603039 19.60803126204325
    vertex 24.09497899198573 67.6575173060304 9.608031262043246
  endloop
endfacet
facet normal -1.0 0.0 0.0
  outer loop
    vertex 24.09497899198573 70.65751730603039 19.60803126204325
    vertex 24.09497899198573 67.65575674106789 29.313892018491583
    vertex 24.09497899198573 73.6557567410679 29.313892018491583
  endloop
endfacet
facet normal -1.0 0.0 0.0
  outer loop
    vertex 24.09497899198573 70.65751730603039 19.60803126204325
    vertex 24.09497899198573 73.6557567410679 29.313892018491583
    vertex 24.09497899198573 73.65751730603039 9.608031262043246
  endloop
endfacet
facet normal 0.0 1.0 0.0
  outer loop
    vertex 24.494978991985732 68.0557567410679 29.313892018491583
    vertex 33.194978991985735 68.0557567410679 10.93549604550157
    vertex 24.494978991985732 68.0557567410679 10.93549604550157
  endloop
endfacet
facet normal 0.0 1.0 0.0
  outer loop
    vertex 33.194978991985735 68.0557567410679 10.93549604550157
    vertex 24.494978991985732 68.0557567410679 29.313892018491583
    vertex 33.194978991985735 68.0557567410679 29.313892018491583
  endloop
endfacet
facet normal 9.2639904226666e-05 0.9999999933067354 6.931361587486417e-05
  outer loop
    vertex 24.09497899198573 73.6557567410679 29.313892018491583
    vertex 33.594978991985734 73.6557567410679 9.613899811918303
    vertex 24.09497899198573 73.65751730603039 9.608031262043246
  endloop
endfacet
facet normal 9.2639904226666e-05 0.9999999933067354 6.931361587486417e-05
  outer loop
    vertex 33.594978991985734 73.6557567410679 9.613899811918303
    vertex 24.09497899198573 73.6557567410679 29.313892018491583
    vertex 33.594978991985734 73.6557567410679 29.313892018491583
  endloop
endfacet
facet normal -9.268270239728619e-05 -0.9999999933072037 -6.924961665675555e-05
  outer loop
    vertex 33.594978991985734 67.65575674106789 29.313892018491583
    vertex 24.09497899198573 67.6575173060304 9.608031262043246
    vertex 33.594978991985734 67.65575674106789 9.602162712168225
  endloop
endfacet
facet normal -9.268270239728619e-05 -0.9999999933072037 -6.924961665675555e-05
  outer loop
    vertex 24.09497899198573 67.6575173060304 9.608031262043246
    vertex 33.594978991985734 67.65575674106789 29.313892018491583
    vertex 24.09497899198573 67.65575674106789 29.313892018491583
  endloop
endfacet
facet normal 2.957990048662013e-16 -0.9578262852211515 -0.28734788556634505
  outer loop
    vertex 33.594978991985734 70.65751730603041 19.60803126204326
    vertex 33.194978991985735 73.2557567410679 10.947233145251616
    vertex 33.594978991985734 73.6557567410679 9.613899811918303
  endloop
endfacet
facet normal 2.957990048662013e-16 -0.9578262852211515 -0.28734788556634505
  outer loop
    vertex 33.194978991985735 73.2557567410679 10.947233145251616
    vertex 33.594978991985734 70.65751730603041 19.60803126204326
    vertex 33.194978991985735 70.65751730603039 19.60803126204325
  endloop
endfacet
facet normal 2.957990048662013e-16 -0.9578262852211515 -0.28734788556634505
  outer loop
    vertex 24.09497899198573 73.65751730603039 9.608031262043246
    vertex 24.494978991985732 73.2557567410679 10.947233145251634
    vertex 24.09497899198573 70.65751730603039 19.60803126204325
  endloop
endfacet
facet normal 2.957990048662013e-16 -0.9578262852211515 -0.28734788556634505
  outer loop
    vertex 24.494978991985732 73.2557567410679 10.947233145251634
    vertex 24.09497899198573 73.65751730603039 9.608031262043246
    vertex 33.594978991985734 73.6557567410679 9.613899811918303
  endloop
endfacet
facet normal 2.957990048662013e-16 -0.9578262852211515 -0.28734788556634505
  outer loop
    vertex 24.494978991985732 73.2557567410679 10.947233145251634
    vertex 33.594978991985734 73.6557567410679 9.613899811918303
    vertex 33.194978991985735 73.2557567410679 10.947233145251616
  endloop
endfacet
facet normal 2.957990048662013e-16 -0.9578262852211515 -0.28734788556634505
  outer loop
    vertex 24.09497899198573 70.65751730603039 19.60803126204325
    vertex 24.494978991985732 73.2557567410679 10.947233145251634
    vertex 24.494978991985732 70.65751730603041 19.60803126204326
  endloop
endfacet
facet normal 1.0 0.0 0.0
  outer loop
    vertex 24.494978991985732 70.65751730603041 19.60803126204326
    vertex 24.494978991985732 68.0557567410679 29.313892018491583
    vertex 24.494978991985732 68.0557567410679 10.93549604550157
  endloop
endfacet
facet normal 1.0 0.0 0.0
  outer loop
    vertex 24.494978991985732 68.0557567410679 29.313892018491583
    vertex 24.494978991985732 70.65751730603041 19.60803126204326
    vertex 24.494978991985732 73.2557567410679 29.313892018491583
  endloop
endfacet
facet normal 1.0 0.0 0.0
  outer loop
    vertex 24.494978991985732 73.2557567410679 29.313892018491583
    vertex 24.494978991985732 70.65751730603041 19.60803126204326
    vertex 24.494978991985732 73.2557567410679 10.947233145251634
  endloop
endfacet
facet normal 0.0 0.0 1.0
  outer loop
    vertex 24.09497899198573 67.65575674106789 29.313892018491583
    vertex 24.494978991985732 68.0557567410679 29.313892018491583
    vertex 24.09497899198573 73.6557567410679 29.313892018491583
  endloop
endfacet
facet normal 0.0 0.0 1.0
  outer loop
    vertex 24.494978991985732 68.0557567410679 29.313892018491583
    vertex 24.09497899198573 67.65575674106789 29.313892018491583
    vertex 33.594978991985734 67.65575674106789 29.313892018491583
  endloop
endfacet
facet normal 0.0 0.0 1.0
  outer loop
    vertex 24.494978991985732 68.0557567410679 29.313892018491583
    vertex 33.594978991985734 67.65575674106789 29.313892018491583
    vertex 33.194978991985735 68.0557567410679 29.313892018491583
  endloop
endfacet
facet normal 0.0 0.0 1.0
  outer loop
    vertex 33.194978991985735 68.0557567410679 29.313892018491583
    vertex 33.594978991985734 67.65575674106789 29.313892018491583
    vertex 33.194978991985735 73.2557567410679 29.313892018491583
  endloop
endfacet
facet normal 0.0 0.0 1.0
  outer loop
    vertex 24.09497899198573 73.6557567410679 29.313892018491583
    vertex 24.494978991985732 73.2557567410679 29.313892018491583
    vertex 33.594978991985734 73.6557567410679 29.313892018491583
  endloop
endfacet
facet normal 0.0 0.0 1.0
  outer loop
    vertex 24.494978991985732 73.2557567410679 29.313892018491583
    vertex 24.09497899198573 73.6557567410679 29.313892018491583
    vertex 24.494978991985732 68.0557567410679 29.313892018491583
  endloop
endfacet
facet normal 0.0 0.0 1.0
  outer loop
    vertex 33.594978991985734 73.6557567410679 29.313892018491583
    vertex 24.494978991985732 73.2557567410679 29.313892018491583
    vertex 33.194978991985735 73.2557567410679 29.313892018491583
  endloop
endfacet
facet normal 0.0 0.0 1.0
  outer loop
    vertex 33.594978991985734 73.6557567410679 29.313892018491583
    vertex 33.194978991985735 73.2557567410679 29.313892018491583
    vertex 33.594978991985734 67.65575674106789 29.313892018491583
  endloop
endfacet
facet normal -1.719805035854249e-16 0.9578262852211513 -0.28734788556634616
  outer loop
    vertex 24.09497899198573 70.65751730603039 19.60803126204325
    vertex 24.494978991985732 68.0557567410679 10.93549604550157
    vertex 24.09497899198573 67.6575173060304 9.608031262043246
  endloop
endfacet
facet normal -1.719805035854249e-16 0.9578262852211513 -0.28734788556634616
  outer loop
    vertex 24.494978991985732 68.0557567410679 10.93549604550157
    vertex 24.09497899198573 70.65751730603039 19.60803126204325
    vertex 24.494978991985732 70.65751730603041 19.60803126204326
  endloop
endfacet
facet normal -1.719805035854249e-16 0.9578262852211513 -0.28734788556634616
  outer loop
    vertex 33.594978991985734 67.65575674106789 9.602162712168225
    vertex 33.194978991985735 68.0557567410679 10.93549604550157
    vertex 33.594978991985734 70.65751730603041 19.60803126204326
  endloop
endfacet
facet normal -1.719805035854249e-16 0.9578262852211513 -0.28734788556634616
  outer loop
    vertex 33.194978991985735 68.0557567410679 10.93549604550157
    vertex 33.594978991985734 67.65575674106789 9.602162712168225
    vertex 24.09497899198573 67.6575173060304 9.608031262043246
  endloop
endfacet
facet normal -1.719805035854249e-16 0.9578262852211513 -0.28734788556634616
  outer loop
    vertex 33.194978991985735 68.0557567410679 10.93549604550157
    vertex 24.09497899198573 67.6575173060304 9.608031262043246
    vertex 24.494978991985732 68.0557567410679 10.93549604550157
  endloop
endfacet
facet normal -1.719805035854249e-16 0.9578262852211513 -0.28734788556634616
  outer loop
    vertex 33.594978991985734 70.65751730603041 19.60803126204326
    vertex 33.194978991985735 68.0557567410679 10.93549604550157
    vertex 33.194978991985735 70.65751730603039 19.60803126204325
  endloop
endfacet
facet normal 0.0 -1.0 0.0
  outer loop
    vertex 35.83336793074155 67.65606831721405 11.0
    vertex 21.833367930741556 67.65606831721405 7.275580000000001
    vertex 35.83336793074155 67.65606831721405 7.275580000000001
  endloop
endfacet
facet normal 0.0 -1.0 0.0
  outer loop
    vertex 21.833367930741556 67.65606831721405 7.275580000000001
    vertex 35.83336793074155 67.65606831721405 11.0
    vertex 32.83984616509802 67.65587160295594 10.932269408083659
  endloop
endfacet
facet normal 0.0 -1.0 0.0
  outer loop
    vertex 32.83984616509802 67.65587160295594 10.932269408083659
    vertex 35.83336793074155 67.65606831721405 11.0
    vertex 32.83336795198804 67.65587160295594 10.99993999461646
  endloop
endfacet
facet normal 0.0 -1.0 0.0
  outer loop
    vertex 21.833367930741556 67.65606831721405 7.275580000000001
    vertex 24.839846126315848 67.65597463578875 10.932470453235284
    vertex 21.833367930741556 67.65606831721405 11.0
  endloop
endfacet
facet normal 0.0 -1.0 0.0
  outer loop
    vertex 24.839846126315848 67.65597463578875 10.932470453235284
    vertex 21.833367930741556 67.65606831721405 7.275580000000001
    vertex 32.83984616509802 67.65587160295594 10.932269408083659
  endloop
endfacet
facet normal 0.0 -1.0 0.0
  outer loop
    vertex 21.833367930741556 67.65606831721405 11.0
    vertex 24.839846126315848 67.65597463578875 10.932470453235284
    vertex 24.833367913205866 67.65597463578875 11.000141039768085
  endloop
endfacet
facet normal -1.164614232881869e-16 -0.9578262852211513 0.2873478855663459
  outer loop
    vertex 35.83336793074155 67.65606831721405 11.0
    vertex 32.83336795198804 70.65587160295594 20.999939994616465
    vertex 32.83336795198804 67.65587160295594 10.99993999461646
  endloop
endfacet
facet normal -1.164614232881869e-16 -0.9578262852211513 0.2873478855663459
  outer loop
    vertex 32.83336795198804 70.65587160295594 20.999939994616465
    vertex 35.83336793074155 67.65606831721405 11.0
    vertex 35.83336793074155 70.65606831721405 21.0
  endloop
endfacet
facet normal -1.0 0.0 0.0
  outer loop
    vertex 35.433367930741554 70.65606831721405 19.607959132145247
    vertex 35.433367930741554 68.05606831721404 7.275580000000001
    vertex 35.433367930741554 68.05606831721404 10.941292465478583
  endloop
endfacet
facet normal -1.0 0.0 0.0
  outer loop
    vertex 35.433367930741554 68.05606831721404 7.275580000000001
    vertex 35.433367930741554 70.65606831721405 19.607959132145247
    vertex 35.433367930741554 73.25606831721404 7.275580000000001
  endloop
endfacet
facet normal -1.0 0.0 0.0
  outer loop
    vertex 35.433367930741554 73.25606831721404 7.275580000000001
    vertex 35.433367930741554 70.65606831721405 19.607959132145247
    vertex 35.433367930741554 73.25606831721404 10.941292465478602
  endloop
endfacet
facet normal -0.99999998826526 -7.123198411928178e-19 -0.00015319751886676468
  outer loop
    vertex 32.83336795198804 70.65587160295594 20.999939994616465
    vertex 32.83984616509802 67.65587160295594 10.932269408083659
    vertex 32.83336795198804 67.65587160295594 10.99993999461646
  endloop
endfacet
facet normal -0.99999998826526 -7.123198411928178e-19 -0.00015319751886676468
  outer loop
    vertex 32.83984616509802 67.65587160295594 10.932269408083659
    vertex 32.83336795198804 70.65587160295594 20.999939994616465
    vertex 32.83984616509802 68.05587160295595 10.932269408083659
  endloop
endfacet
facet normal -0.99999998826526 -7.123198411928178e-19 -0.00015319751886676468
  outer loop
    vertex 32.83984616509802 68.05587160295595 10.932269408083659
    vertex 32.83336795198804 70.65587160295594 20.999939994616465
    vertex 32.83984616509802 70.65587160295594 19.607899126761723
  endloop
endfacet
facet normal -0.99999998826526 -7.123198411928178e-19 -0.00015319751886676468
  outer loop
    vertex 32.83984616509802 70.65587160295594 19.607899126761723
    vertex 32.83336795198804 70.65587160295594 20.999939994616465
    vertex 32.83984616509802 73.25587160295595 10.932269408083659
  endloop
endfacet
facet normal -0.99999998826526 -7.123198411928178e-19 -0.00015319751886676468
  outer loop
    vertex 32.83984616509802 73.25587160295595 10.932269408083659
    vertex 32.83336795198804 70.65587160295594 20.999939994616465
    vertex 32.83336795198804 73.65587160295594 10.999939994616462
  endloop
endfacet
facet normal -0.99999998826526 -7.123198411928178e-19 -0.00015319751886676468
  outer loop
    vertex 32.83984616509802 73.25587160295595 10.932269408083659
    vertex 32.83336795198804 73.65587160295594 10.999939994616462
    vertex 32.83984616509802 73.65587160295594 10.932269408083659
  endloop
endfacet
facet normal 0.99999998826526 7.261691715893061e-19 0.00015319751886676473
  outer loop
    vertex 24.839846126315848 68.05597463578876 10.932470453235284
    vertex 24.833367913205866 67.65597463578875 11.000141039768085
    vertex 24.839846126315848 67.65597463578875 10.932470453235284
  endloop
endfacet
facet normal 0.99999998826526 7.261691715893061e-19 0.00015319751886676473
  outer loop
    vertex 24.833367913205866 67.65597463578875 11.000141039768085
    vertex 24.839846126315848 68.05597463578876 10.932470453235284
    vertex 24.833367913205866 70.65597463578877 21.00014103976809
  endloop
endfacet
facet normal 0.99999998826526 7.261691715893061e-19 0.00015319751886676473
  outer loop
    vertex 24.833367913205866 70.65597463578877 21.00014103976809
    vertex 24.839846126315848 68.05597463578876 10.932470453235284
    vertex 24.839846126315848 70.65597463578875 19.608100171913343
  endloop
endfacet
facet normal 0.99999998826526 7.261691715893061e-19 0.00015319751886676473
  outer loop
    vertex 24.833367913205866 70.65597463578877 21.00014103976809
    vertex 24.839846126315848 70.65597463578875 19.608100171913343
    vertex 24.839846126315848 73.25597463578876 10.932470453235284
  endloop
endfacet
facet normal 0.99999998826526 7.261691715893061e-19 0.00015319751886676473
  outer loop
    vertex 24.833367913205866 70.65597463578877 21.00014103976809
    vertex 24.839846126315848 73.25597463578876 10.932470453235284
    vertex 24.833367913205866 73.65597463578875 11.000141039768085
  endloop
endfacet
facet normal 0.99999998826526 7.261691715893061e-19 0.00015319751886676473
  outer loop
    vertex 24.833367913205866 73.65597463578875 11.000141039768085
    vertex 24.839846126315848 73.25597463578876 10.932470453235284
    vertex 24.839846126315848 73.65597463578875 10.932470453235284
  endloop
endfacet
facet normal 0.00046575910432003996 -0.957873103209194 -0.2871914017112025
  outer loop
    vertex 35.433367930741554 73.25606831721404 10.941292465478602
    vertex 33.51378328236561 73.25389358763856 10.936812333878894
    vertex 33.58984614385154 73.25606831721404 10.932329413467198
  endloop
endfacet
facet normal 0.00046575910432003996 -0.957873103209194 -0.2871914017112025
  outer loop
    vertex 33.51378328236561 73.25389358763856 10.936812333878894
    vertex 35.433367930741554 73.25606831721404 10.941292465478602
    vertex 33.18984614385154 73.25606831721404 10.941292465478604
  endloop
endfacet
facet normal 0.00046575910432003996 -0.957873103209194 -0.2871914017112025
  outer loop
    vertex 33.18984614385154 73.25606831721404 10.941292465478604
    vertex 35.433367930741554 73.25606831721404 10.941292465478602
    vertex 35.433367930741554 70.65606831721405 19.607959132145247
  endloop
endfacet
facet normal 0.00046575910432003996 -0.957873103209194 -0.2871914017112025
  outer loop
    vertex 33.18984614385154 73.25606831721404 10.941292465478604
    vertex 35.433367930741554 70.65606831721405 19.607959132145247
    vertex 32.83984616509802 70.65587160295594 19.607899126761723
  endloop
endfacet
facet normal 0.00046575910432003996 -0.957873103209194 -0.2871914017112025
  outer loop
    vertex 32.83984616509802 70.65587160295594 19.607899126761723
    vertex 32.83984616509802 73.25587160295595 10.932269408083659
    vertex 33.18984614385154 73.25606831721404 10.941292465478604
  endloop
endfacet
facet normal -0.0003063059397141867 0.9578587089323397 -0.2872396210468582
  outer loop
    vertex 21.833367930741556 68.05606831721404 10.941292465478583
    vertex 24.165909005337262 68.05389358763857 10.936812333878887
    vertex 24.08984614385153 68.05606831721404 10.932329413467198
  endloop
endfacet
facet normal -0.0003063059397141867 0.9578587089323397 -0.2872396210468582
  outer loop
    vertex 24.165909005337262 68.05389358763857 10.936812333878887
    vertex 24.839846126315848 70.65597463578875 19.608100171913343
    vertex 24.839846126315848 68.05597463578876 10.932470453235284
  endloop
endfacet
facet normal -0.0003063059397141867 0.9578587089323397 -0.2872396210468582
  outer loop
    vertex 24.839846126315848 70.65597463578875 19.608100171913343
    vertex 24.165909005337262 68.05389358763857 10.936812333878887
    vertex 21.833367930741556 68.05606831721404 10.941292465478583
  endloop
endfacet
facet normal -0.0003063059397141867 0.9578587089323397 -0.2872396210468582
  outer loop
    vertex 24.839846126315848 70.65597463578875 19.608100171913343
    vertex 21.833367930741556 68.05606831721404 10.941292465478583
    vertex 21.833367930741556 70.65606831721405 19.607959132145247
  endloop
endfacet
facet normal -5.293701058555181e-17 -0.9578262852211513 0.28734788556634594
  outer loop
    vertex 24.833367913205866 67.65597463578875 11.000141039768085
    vertex 21.833367930741556 70.65606831721405 21.0
    vertex 21.833367930741556 67.65606831721405 11.0
  endloop
endfacet
facet normal -5.293701058555181e-17 -0.9578262852211513 0.28734788556634594
  outer loop
    vertex 21.833367930741556 70.65606831721405 21.0
    vertex 24.833367913205866 67.65597463578875 11.000141039768085
    vertex 24.833367913205866 70.65597463578877 21.00014103976809
  endloop
endfacet
facet normal -0.00030246810574753596 -0.9578500363383966 -0.28726854404820856
  outer loop
    vertex 24.839846126315848 70.65597463578875 19.608100171913343
    vertex 24.48984614385153 73.25606831721404 10.941292465478604
    vertex 24.839846126315848 73.25597463578876 10.932470453235284
  endloop
endfacet
facet normal -0.00030246810574753596 -0.9578500363383966 -0.28726854404820856
  outer loop
    vertex 24.48984614385153 73.25606831721404 10.941292465478604
    vertex 24.839846126315848 70.65597463578875 19.608100171913343
    vertex 21.833367930741556 70.65606831721405 19.607959132145247
  endloop
endfacet
facet normal -0.00030246810574753596 -0.9578500363383966 -0.28726854404820856
  outer loop
    vertex 21.833367930741556 70.65606831721405 19.607959132145247
    vertex 21.833367930741556 73.25606831721404 10.941292465478602
    vertex 24.48984614385153 73.25606831721404 10.941292465478604
  endloop
endfacet
facet normal 1.0 0.0 0.0
  outer loop
    vertex 35.83336793074155 73.65606831721405 7.275580000000001
    vertex 35.83336793074155 67.65606831721405 11.0
    vertex 35.83336793074155 67.65606831721405 7.275580000000001
  endloop
endfacet
facet normal 1.0 0.0 0.0
  outer loop
    vertex 35.83336793074155 67.65606831721405 11.0
    vertex 35.83336793074155 73.65606831721405 7.275580000000001
    vertex 35.83336793074155 70.65606831721405 21.0
  endloop
endfacet
facet normal 1.0 0.0 0.0
  outer loop
    vertex 35.83336793074155 70.65606831721405 21.0
    vertex 35.83336793074155 73.65606831721405 7.275580000000001
    vertex 35.83336793074155 73.65606831721405 11.0
  endloop
endfacet
facet normal 0.0006981993718810803 0.9578669393725858 -0.28721148823581627
  outer loop
    vertex 32.83984616509802 70.65587160295594 19.607899126761723
    vertex 35.433367930741554 68.05606831721404 10.941292465478583
    vertex 32.83984616509802 68.05587160295595 10.932269408083659
  endloop
endfacet
facet normal 0.0006981993718810803 0.9578669393725858 -0.28721148823581627
  outer loop
    vertex 35.433367930741554 68.05606831721404 10.941292465478583
    vertex 32.83984616509802 70.65587160295594 19.607899126761723
    vertex 35.433367930741554 70.65606831721405 19.607959132145247
  endloop
endfacet
facet normal 1.0106622755056448e-15 0.9578262852211515 0.2873478855663451
  outer loop
    vertex 32.83336795198804 70.65587160295594 20.999939994616465
    vertex 35.83336793074155 73.65606831721405 11.0
    vertex 32.83336795198804 73.65587160295594 10.999939994616462
  endloop
endfacet
facet normal 1.0106622755056448e-15 0.9578262852211515 0.2873478855663451
  outer loop
    vertex 35.83336793074155 73.65606831721405 11.0
    vertex 32.83336795198804 70.65587160295594 20.999939994616465
    vertex 35.83336793074155 70.65606831721405 21.0
  endloop
endfacet
facet normal 0.0 0.0 -1.0
  outer loop
    vertex 35.83336793074155 73.65606831721405 7.275580000000001
    vertex 21.833367930741556 73.25606831721404 7.275580000000001
    vertex 21.833367930741556 73.65606831721405 7.275580000000001
  endloop
endfacet
facet normal 0.0 0.0 -1.0
  outer loop
    vertex 21.833367930741556 73.25606831721404 7.275580000000001
    vertex 35.83336793074155 73.65606831721405 7.275580000000001
    vertex 35.433367930741554 73.25606831721404 7.275580000000001
  endloop
endfacet
facet normal 0.0 0.0 -1.0
  outer loop
    vertex 35.433367930741554 73.25606831721404 7.275580000000001
    vertex 35.83336793074155 73.65606831721405 7.275580000000001
    vertex 35.433367930741554 68.05606831721404 7.275580000000001
  endloop
endfacet
facet normal 0.0 0.0 -1.0
  outer loop
    vertex 35.433367930741554 68.05606831721404 7.275580000000001
    vertex 21.833367930741556 67.65606831721405 7.275580000000001
    vertex 21.833367930741556 68.05606831721404 7.275580000000001
  endloop
endfacet
facet normal 0.0 0.0 -1.0
  outer loop
    vertex 21.833367930741556 67.65606831721405 7.275580000000001
    vertex 35.433367930741554 68.05606831721404 7.275580000000001
    vertex 35.83336793074155 67.65606831721405 7.275580000000001
  endloop
endfacet
facet normal 0.0 0.0 -1.0
  outer loop
    vertex 35.83336793074155 67.65606831721405 7.275580000000001
    vertex 35.433367930741554 68.05606831721404 7.275580000000001
    vertex 35.83336793074155 73.65606831721405 7.275580000000001
  endloop
endfacet
facet normal 3.7019187895167537e-05 -8.947428973620376e-20 0.9999999993147899
  outer loop
    vertex 32.83984616509802 67.65587160295594 10.932269408083659
    vertex 24.839846126315848 68.05597463578876 10.932470453235284
    vertex 24.839846126315848 67.65597463578875 10.932470453235284
  endloop
endfacet
facet normal 3.7019187895167537e-05 -8.947428973620376e-20 0.9999999993147899
  outer loop
    vertex 24.839846126315848 68.05597463578876 10.932470453235284
    vertex 32.83984616509802 67.65587160295594 10.932269408083659
    vertex 32.83984616509802 68.05587160295595 10.932269408083659
  endloop
endfacet
facet normal 3.701918789516754e-05 -6.276275856234752e-20 0.9999999993147899
  outer loop
    vertex 32.83984616509802 73.25587160295595 10.932269408083659
    vertex 24.839846126315848 73.65597463578875 10.932470453235284
    vertex 24.839846126315848 73.25597463578876 10.932470453235284
  endloop
endfacet
facet normal 3.701918789516754e-05 -6.276275856234752e-20 0.9999999993147899
  outer loop
    vertex 24.839846126315848 73.65597463578875 10.932470453235284
    vertex 32.83984616509802 73.25587160295595 10.932269408083659
    vertex 32.83984616509802 73.65587160295594 10.932269408083659
  endloop
endfacet
facet normal -9.784147481683206e-16 0.9578262852211515 0.2873478855663451
  outer loop
    vertex 21.833367930741556 70.65606831721405 21.0
    vertex 24.833367913205866 73.65597463578875 11.000141039768085
    vertex 21.833367930741556 73.65606831721405 11.0
  endloop
endfacet
facet normal -9.784147481683206e-16 0.9578262852211515 0.2873478855663451
  outer loop
    vertex 24.833367913205866 73.65597463578875 11.000141039768085
    vertex 21.833367930741556 70.65606831721405 21.0
    vertex 24.833367913205866 70.65597463578877 21.00014103976809
  endloop
endfacet
facet normal 0.0 1.0 0.0
  outer loop
    vertex 21.833367930741556 73.65606831721405 11.0
    vertex 35.83336793074155 73.65606831721405 7.275580000000001
    vertex 21.833367930741556 73.65606831721405 7.275580000000001
  endloop
endfacet
facet normal 0.0 1.0 0.0
  outer loop
    vertex 35.83336793074155 73.65606831721405 7.275580000000001
    vertex 21.833367930741556 73.65606831721405 11.0
    vertex 24.839846126315848 73.65597463578875 10.932470453235284
  endloop
endfacet
facet normal 0.0 1.0 0.0
  outer loop
    vertex 35.83336793074155 73.65606831721405 7.275580000000001
    vertex 24.839846126315848 73.65597463578875 10.932470453235284
    vertex 32.83984616509802 73.65587160295594 10.932269408083659
  endloop
endfacet
facet normal 0.0 1.0 0.0
  outer loop
    vertex 24.839846126315848 73.65597463578875 10.932470453235284
    vertex 21.833367930741556 73.65606831721405 11.0
    vertex 24.833367913205866 73.65597463578875 11.000141039768085
  endloop
endfacet
facet normal 0.0 1.0 0.0
  outer loop
    vertex 32.83984616509802 73.65587160295594 10.932269408083659
    vertex 35.83336793074155 73.65606831721405 11.0
    vertex 35.83336793074155 73.65606831721405 7.275580000000001
  endloop
endfacet
facet normal 0.0 1.0 0.0
  outer loop
    vertex 35.83336793074155 73.65606831721405 11.0
    vertex 32.83984616509802 73.65587160295594 10.932269408083659
    vertex 32.83336795198804 73.65587160295594 10.999939994616462
  endloop
endfacet
facet normal -2.378093883453066e-05 -0.9999999995261677 -1.9548189999760323e-05
  outer loop
    vertex 35.433367930741554 73.25606831721404 10.941292465478602
    vertex 21.833367930741556 73.25606831721404 7.275580000000001
    vertex 35.433367930741554 73.25606831721404 7.275580000000001
  endloop
endfacet
facet normal -2.378093883453066e-05 -0.9999999995261677 -1.9548189999760323e-05
  outer loop
    vertex 21.833367930741556 73.25606831721404 7.275580000000001
    vertex 35.433367930741554 73.25606831721404 10.941292465478602
    vertex 33.58984614385154 73.25606831721404 10.932329413467198
  endloop
endfacet
facet normal -2.378093883453066e-05 -0.9999999995261677 -1.9548189999760323e-05
  outer loop
    vertex 21.833367930741556 73.25606831721404 7.275580000000001
    vertex 33.58984614385154 73.25606831721404 10.932329413467198
    vertex 32.83984616509802 73.25587160295595 10.932269408083659
  endloop
endfacet
facet normal -2.378093883453066e-05 -0.9999999995261677 -1.9548189999760323e-05
  outer loop
    vertex 33.58984614385154 73.25606831721404 10.932329413467198
    vertex 33.18984614385154 73.25606831721404 10.941292465478604
    vertex 32.83984616509802 73.25587160295595 10.932269408083659
  endloop
endfacet
facet normal -2.378093883453066e-05 -0.9999999995261677 -1.9548189999760323e-05
  outer loop
    vertex 33.18984614385154 73.25606831721404 10.941292465478604
    vertex 33.58984614385154 73.25606831721404 10.932329413467198
    vertex 33.51378328236561 73.25389358763856 10.936812333878894
  endloop
endfacet
facet normal -2.378093883453066e-05 -0.9999999995261677 -1.9548189999760323e-05
  outer loop
    vertex 21.833367930741556 73.25606831721404 7.275580000000001
    vertex 24.839846126315848 73.25597463578876 10.932470453235284
    vertex 21.833367930741556 73.25606831721404 10.941292465478602
  endloop
endfacet
facet normal -2.378093883453066e-05 -0.9999999995261677 -1.9548189999760323e-05
  outer loop
    vertex 24.839846126315848 73.25597463578876 10.932470453235284
    vertex 21.833367930741556 73.25606831721404 7.275580000000001
    vertex 32.83984616509802 73.25587160295595 10.932269408083659
  endloop
endfacet
facet normal -2.378093883453066e-05 -0.9999999995261677 -1.9548189999760323e-05
  outer loop
    vertex 21.833367930741556 73.25606831721404 10.941292465478602
    vertex 24.839846126315848 73.25597463578876 10.932470453235284
    vertex 24.48984614385153 73.25606831721404 10.941292465478604
  endloop
endfacet
facet normal -1.0 0.0 0.0
  outer loop
    vertex 21.833367930741556 67.65606831721405 11.0
    vertex 21.833367930741556 68.05606831721404 10.941292465478583
    vertex 21.833367930741556 67.65606831721405 7.275580000000001
  endloop
endfacet
facet normal -1.0 0.0 0.0
  outer loop
    vertex 21.833367930741556 68.05606831721404 10.941292465478583
    vertex 21.833367930741556 67.65606831721405 11.0
    vertex 21.833367930741556 70.65606831721405 21.0
  endloop
endfacet
facet normal -1.0 0.0 0.0
  outer loop
    vertex 21.833367930741556 68.05606831721404 10.941292465478583
    vertex 21.833367930741556 70.65606831721405 21.0
    vertex 21.833367930741556 70.65606831721405 19.607959132145247
  endloop
endfacet
facet normal -1.0 0.0 0.0
  outer loop
    vertex 21.833367930741556 70.65606831721405 19.607959132145247
    vertex 21.833367930741556 70.65606831721405 21.0
    vertex 21.833367930741556 73.65606831721405 11.0
  endloop
endfacet
facet normal -1.0 0.0 0.0
  outer loop
    vertex 21.833367930741556 70.65606831721405 19.607959132145247
    vertex 21.833367930741556 73.65606831721405 11.0
    vertex 21.833367930741556 73.25606831721404 10.941292465478602
  endloop
endfacet
facet normal -1.0 0.0 0.0
  outer loop
    vertex 21.833367930741556 73.25606831721404 10.941292465478602
    vertex 21.833367930741556 73.65606831721405 11.0
    vertex 21.833367930741556 73.25606831721404 7.275580000000001
  endloop
endfacet
facet normal -1.0 0.0 0.0
  outer loop
    vertex 21.833367930741556 73.25606831721404 7.275580000000001
    vertex 21.833367930741556 73.65606831721405 11.0
    vertex 21.833367930741556 73.65606831721405 7.275580000000001
  endloop
endfacet
facet normal -1.0 0.0 0.0
  outer loop
    vertex 21.833367930741556 68.05606831721404 7.275580000000001
    vertex 21.833367930741556 67.65606831721405 7.275580000000001
    vertex 21.833367930741556 68.05606831721404 10.941292465478583
  endloop
endfacet
facet normal -1.8342244032203334e-05 0.999999998959793 4.176094319486984e-05
  outer loop
    vertex 21.833367930741556 68.05606831721404 10.941292465478583
    vertex 35.433367930741554 68.05606831721404 7.275580000000001
    vertex 21.833367930741556 68.05606831721404 7.275580000000001
  endloop
endfacet
facet normal -1.8342244032203334e-05 0.999999998959793 4.176094319486984e-05
  outer loop
    vertex 35.433367930741554 68.05606831721404 7.275580000000001
    vertex 21.833367930741556 68.05606831721404 10.941292465478583
    vertex 24.08984614385153 68.05606831721404 10.932329413467198
  endloop
endfacet
facet normal -1.8342244032203334e-05 0.999999998959793 4.176094319486984e-05
  outer loop
    vertex 35.433367930741554 68.05606831721404 7.275580000000001
    vertex 24.08984614385153 68.05606831721404 10.932329413467198
    vertex 32.83984616509802 68.05587160295595 10.932269408083659
  endloop
endfacet
facet normal -1.8342244032203334e-05 0.999999998959793 4.176094319486984e-05
  outer loop
    vertex 24.08984614385153 68.05606831721404 10.932329413467198
    vertex 24.839846126315848 68.05597463578876 10.932470453235284
    vertex 32.83984616509802 68.05587160295595 10.932269408083659
  endloop
endfacet
facet normal -1.8342244032203334e-05 0.999999998959793 4.176094319486984e-05
  outer loop
    vertex 24.839846126315848 68.05597463578876 10.932470453235284
    vertex 24.08984614385153 68.05606831721404 10.932329413467198
    vertex 24.165909005337262 68.05389358763857 10.936812333878887
  endloop
endfacet
facet normal -1.8342244032203334e-05 0.999999998959793 4.176094319486984e-05
  outer loop
    vertex 35.433367930741554 68.05606831721404 10.941292465478583
    vertex 35.433367930741554 68.05606831721404 7.275580000000001
    vertex 32.83984616509802 68.05587160295595 10.932269408083659
  endloop
endfacet
facet normal 0.0 -1.0 0.0
  outer loop
    vertex 22.241408999999997 67.85712309621896 8.105591625622829
    vertex 21.841409 67.85712309621896 7.2872196256228285
    vertex 22.241408999999997 67.85712309621896 7.2872196256228285
  endloop
endfacet
facet normal 0.0 -1.0 0.0
  outer loop
    vertex 21.841409 67.85712309621896 7.2872196256228285
    vertex 22.241408999999997 67.85712309621896 8.105591625622829
    vertex 21.841409 67.85712309621896 8.105591625622829
  endloop
endfacet
facet normal 0.0 1.0 0.0
  outer loop
    vertex 21.841409 73.45712309621895 8.105591625622829
    vertex 22.241408999999997 73.45712309621895 7.2872196256228285
    vertex 21.841409 73.45712309621895 7.2872196256228285
  endloop
endfacet
facet normal 0.0 1.0 0.0
  outer loop
    vertex 22.241408999999997 73.45712309621895 7.2872196256228285
    vertex 21.841409 73.45712309621895 8.105591625622829
    vertex 22.241408999999997 73.45712309621895 8.105591625622829
  endloop
endfacet
facet normal 1.0 0.0 0.0
  outer loop
    vertex 22.241408999999997 73.45712309621895 7.2872196256228285
    vertex 22.241408999999997 67.85712309621896 8.105591625622829
    vertex 22.241408999999997 67.85712309621896 7.2872196256228285
  endloop
endfacet
facet normal 1.0 0.0 0.0
  outer loop
    vertex 22.241408999999997 67.85712309621896 8.105591625622829
    vertex 22.241408999999997 73.45712309621895 7.2872196256228285
    vertex 22.241408999999997 73.45712309621895 8.105591625622829
  endloop
endfacet
facet normal -0.0 -0.0 -1.0
  outer loop
    vertex 22.241408999999997 73.45712309621895 7.2872196256228285
    vertex 21.841409 67.85712309621896 7.2872196256228285
    vertex 21.841409 73.45712309621895 7.2872196256228285
  endloop
endfacet
facet normal -0.0 -0.0 -1.0
  outer loop
    vertex 21.841409 67.85712309621896 7.2872196256228285
    vertex 22.241408999999997 73.45712309621895 7.2872196256228285
    vertex 22.241408999999997 67.85712309621896 7.2872196256228285
  endloop
endfacet
facet normal 0.0 0.0 1.0
  outer loop
    vertex 22.241408999999997 67.85712309621896 8.105591625622829
    vertex 21.841409 73.45712309621895 8.105591625622829
    vertex 21.841409 67.85712309621896 8.105591625622829
  endloop
endfacet
facet normal 0.0 0.0 1.0
  outer loop
    vertex 21.841409 73.45712309621895 8.105591625622829
    vertex 22.241408999999997 67.85712309621896 8.105591625622829
    vertex 22.241408999999997 73.45712309621895 8.105591625622829
  endloop
endfacet
facet normal -1.0 0.0 0.0
  outer loop
    vertex 21.841409 73.45712309621895 8.105591625622829
    vertex 21.841409 67.85712309621896 7.2872196256228285
    vertex 21.841409 67.85712309621896 8.105591625622829
  endloop
endfacet
facet normal -1.0 0.0 0.0
  outer loop
    vertex 21.841409 67.85712309621896 7.2872196256228285
    vertex 21.841409 73.45712309621895 8.105591625622829
    vertex 21.841409 73.45712309621895 7.2872196256228285
  endloop
endfacet
facet normal 0.0 0.0 -1.0
  outer loop
    vertex 24.080692712891565 68.06275689077654 7.335809321355258
    vertex 24.480692712891564 67.66275689077654 7.335809321355258
    vertex 24.080692712891565 62.56275689077654 7.335809321355258
  endloop
endfacet
facet normal 0.0 0.0 -1.0
  outer loop
    vertex 24.480692712891564 67.66275689077654 7.335809321355258
    vertex 24.080692712891565 68.06275689077654 7.335809321355258
    vertex 33.58069271289157 68.06275689077654 7.335809321355258
  endloop
endfacet
facet normal 0.0 0.0 -1.0
  outer loop
    vertex 24.480692712891564 67.66275689077654 7.335809321355258
    vertex 33.58069271289157 68.06275689077654 7.335809321355258
    vertex 33.18069271289157 67.66275689077654 7.335809321355258
  endloop
endfacet
facet normal 0.0 0.0 -1.0
  outer loop
    vertex 33.18069271289157 67.66275689077654 7.335809321355258
    vertex 33.58069271289157 68.06275689077654 7.335809321355258
    vertex 33.18069271289157 62.96275689077654 7.335809321355258
  endloop
endfacet
facet normal 0.0 0.0 -1.0
  outer loop
    vertex 24.080692712891565 62.56275689077654 7.335809321355258
    vertex 24.480692712891564 62.96275689077654 7.335809321355258
    vertex 33.58069271289157 62.56275689077654 7.335809321355258
  endloop
endfacet
facet normal 0.0 0.0 -1.0
  outer loop
    vertex 24.480692712891564 62.96275689077654 7.335809321355258
    vertex 24.080692712891565 62.56275689077654 7.335809321355258
    vertex 24.480692712891564 67.66275689077654 7.335809321355258
  endloop
endfacet
facet normal 0.0 0.0 -1.0
  outer loop
    vertex 33.58069271289157 62.56275689077654 7.335809321355258
    vertex 24.480692712891564 62.96275689077654 7.335809321355258
    vertex 33.18069271289157 62.96275689077654 7.335809321355258
  endloop
endfacet
facet normal 0.0 0.0 -1.0
  outer loop
    vertex 33.58069271289157 62.56275689077654 7.335809321355258
    vertex 33.18069271289157 62.96275689077654 7.335809321355258
    vertex 33.58069271289157 68.06275689077654 7.335809321355258
  endloop
endfacet
facet normal -1.0 0.0 0.0
  outer loop
    vertex 33.18069271289157 67.66275689077654 29.335809321355256
    vertex 33.18069271289157 62.96275689077654 7.335809321355258
    vertex 33.18069271289157 62.96275689077654 29.335809321355256
  endloop
endfacet
facet normal -1.0 0.0 0.0
  outer loop
    vertex 33.18069271289157 62.96275689077654 7.335809321355258
    vertex 33.18069271289157 67.66275689077654 29.335809321355256
    vertex 33.18069271289157 67.66275689077654 7.335809321355258
  endloop
endfacet
facet normal -0.0 -1.0 -0.0
  outer loop
    vertex 33.58069271289157 62.56275689077654 29.335809321355256
    vertex 24.080692712891565 62.56275689077654 7.335809321355258
    vertex 33.58069271289157 62.56275689077654 7.335809321355258
  endloop
endfacet
facet normal -0.0 -1.0 -0.0
  outer loop
    vertex 24.080692712891565 62.56275689077654 7.335809321355258
    vertex 33.58069271289157 62.56275689077654 29.335809321355256
    vertex 24.080692712891565 62.56275689077654 29.335809321355256
  endloop
endfacet
facet normal -0.0 -1.0 -0.0
  outer loop
    vertex 33.18069271289157 67.66275689077654 29.335809321355256
    vertex 24.480692712891564 67.66275689077654 7.335809321355258
    vertex 33.18069271289157 67.66275689077654 7.335809321355258
  endloop
endfacet
facet normal -0.0 -1.0 -0.0
  outer loop
    vertex 24.480692712891564 67.66275689077654 7.335809321355258
    vertex 33.18069271289157 67.66275689077654 29.335809321355256
    vertex 24.480692712891564 67.66275689077654 29.335809321355256
  endloop
endfacet
facet normal 0.0 1.0 0.0
  outer loop
    vertex 24.080692712891565 68.06275689077654 29.335809321355256
    vertex 33.58069271289157 68.06275689077654 7.335809321355258
    vertex 24.080692712891565 68.06275689077654 7.335809321355258
  endloop
endfacet
facet normal 0.0 1.0 0.0
  outer loop
    vertex 33.58069271289157 68.06275689077654 7.335809321355258
    vertex 24.080692712891565 68.06275689077654 29.335809321355256
    vertex 33.58069271289157 68.06275689077654 29.335809321355256
  endloop
endfacet
facet normal 1.0 0.0 0.0
  outer loop
    vertex 33.58069271289157 68.06275689077654 7.335809321355258
    vertex 33.58069271289157 62.56275689077654 29.335809321355256
    vertex 33.58069271289157 62.56275689077654 7.335809321355258
  endloop
endfacet
facet normal 1.0 0.0 0.0
  outer loop
    vertex 33.58069271289157 62.56275689077654 29.335809321355256
    vertex 33.58069271289157 68.06275689077654 7.335809321355258
    vertex 33.58069271289157 68.06275689077654 29.335809321355256
  endloop
endfacet
facet normal 0.0 1.0 0.0
  outer loop
    vertex 24.480692712891564 62.96275689077654 29.335809321355256
    vertex 33.18069271289157 62.96275689077654 7.335809321355258
    vertex 24.480692712891564 62.96275689077654 7.335809321355258
  endloop
endfacet
facet normal 0.0 1.0 0.0
  outer loop
    vertex 33.18069271289157 62.96275689077654 7.335809321355258
    vertex 24.480692712891564 62.96275689077654 29.335809321355256
    vertex 33.18069271289157 62.96275689077654 29.335809321355256
  endloop
endfacet
facet normal 1.0 0.0 0.0
  outer loop
    vertex 24.480692712891564 67.66275689077654 7.335809321355258
    vertex 24.480692712891564 62.96275689077654 29.335809321355256
    vertex 24.480692712891564 62.96275689077654 7.335809321355258
  endloop
endfacet
facet normal 1.0 0.0 0.0
  outer loop
    vertex 24.480692712891564 62.96275689077654 29.335809321355256
    vertex 24.480692712891564 67.66275689077654 7.335809321355258
    vertex 24.480692712891564 67.66275689077654 29.335809321355256
  endloop
endfacet
facet normal -1.0 0.0 0.0
  outer loop
    vertex 24.080692712891565 68.06275689077654 29.335809321355256
    vertex 24.080692712891565 62.56275689077654 7.335809321355258
    vertex 24.080692712891565 62.56275689077654 29.335809321355256
  endloop
endfacet
facet normal -1.0 0.0 0.0
  outer loop
    vertex 24.080692712891565 62.56275689077654 7.335809321355258
    vertex 24.080692712891565 68.06275689077654 29.335809321355256
    vertex 24.080692712891565 68.06275689077654 7.335809321355258
  endloop
endfacet
facet normal 0.0 0.0 1.0
  outer loop
    vertex 24.080692712891565 62.56275689077654 29.335809321355256
    vertex 24.480692712891564 62.96275689077654 29.335809321355256
    vertex 24.080692712891565 68.06275689077654 29.335809321355256
  endloop
endfacet
facet normal 0.0 0.0 1.0
  outer loop
    vertex 24.480692712891564 62.96275689077654 29.335809321355256
    vertex 24.080692712891565 62.56275689077654 29.335809321355256
    vertex 33.58069271289157 62.56275689077654 29.335809321355256
  endloop
endfacet
facet normal 0.0 0.0 1.0
  outer loop
    vertex 24.480692712891564 62.96275689077654 29.335809321355256
    vertex 33.58069271289157 62.56275689077654 29.335809321355256
    vertex 33.18069271289157 62.96275689077654 29.335809321355256
  endloop
endfacet
facet normal 0.0 0.0 1.0
  outer loop
    vertex 33.18069271289157 62.96275689077654 29.335809321355256
    vertex 33.58069271289157 62.56275689077654 29.335809321355256
    vertex 33.18069271289157 67.66275689077654 29.335809321355256
  endloop
endfacet
facet normal 0.0 0.0 1.0
  outer loop
    vertex 24.080692712891565 68.06275689077654 29.335809321355256
    vertex 24.480692712891564 67.66275689077654 29.335809321355256
    vertex 33.58069271289157 68.06275689077654 29.335809321355256
  endloop
endfacet
facet normal 0.0 0.0 1.0
  outer loop
    vertex 24.480692712891564 67.66275689077654 29.335809321355256
    vertex 24.080692712891565 68.06275689077654 29.335809321355256
    vertex 24.480692712891564 62.96275689077654 29.335809321355256
  endloop
endfacet
facet normal 0.0 0.0 1.0
  outer loop
    vertex 33.58069271289157 68.06275689077654 29.335809321355256
    vertex 24.480692712891564 67.66275689077654 29.335809321355256
    vertex 33.18069271289157 67.66275689077654 29.335809321355256
  endloop
endfacet
facet normal 0.0 0.0 1.0
  outer loop
    vertex 33.58069271289157 68.06275689077654 29.335809321355256
    vertex 33.18069271289157 67.66275689077654 29.335809321355256
    vertex 33.58069271289157 62.56275689077654 29.335809321355256
  endloop
endfacet
endsolid probeCover400um_v2
